<svg version="1.1" id="Layer_1" xmlns="http://www.w3.org/2000/svg" xmlns:xlink="http://www.w3.org/1999/xlink" x="0px" y="0px"
	 width="100%" viewBox="0 0 534 300" enable-background="new 0 0 534 300" xml:space="preserve">
<path fill="#FEFEFE" opacity="1.000000" stroke="none" 
	d="
M346.000000,301.000000 
	C230.666702,301.000000 115.833405,301.000000 1.000077,301.000000 
	C1.000051,201.000061 1.000051,101.000130 1.000026,1.000144 
	C178.999878,1.000096 356.999756,1.000096 534.999756,1.000048 
	C534.999817,100.999855 534.999817,200.999710 534.999878,300.999786 
	C472.166656,301.000000 409.333344,301.000000 346.000000,301.000000 
M55.010777,74.738861 
	C55.064163,75.494339 55.117550,76.249817 55.027588,77.932159 
	C55.020138,140.460373 55.011684,202.988571 55.012985,265.516785 
	C55.013008,266.675751 55.129002,267.834747 54.827625,269.843048 
	C42.706367,270.007660 30.585346,270.193420 18.463751,270.327148 
	C13.183790,270.385406 7.902653,270.336914 2.717999,270.336914 
	C0.446324,285.604767 9.526141,296.593292 24.214161,296.724976 
	C39.702793,296.863800 55.193680,296.748260 70.683578,296.748383 
	C217.254684,296.749359 363.825806,296.752960 510.396912,296.750732 
	C526.574585,296.750488 535.776489,286.321075 533.105591,270.348053 
	C531.431213,270.348053 529.651001,270.358704 527.870911,270.346375 
	C512.227844,270.238007 496.584747,270.125610 481.064819,269.082245 
	C481.009155,257.055237 480.953522,245.028244 481.082123,232.079666 
	C481.089996,224.774719 481.117889,217.469711 481.102203,210.164825 
	C481.043365,182.776794 480.970337,155.388824 481.086975,127.079330 
	C481.094025,92.582382 480.919403,58.083855 481.220581,23.589478 
	C481.309052,13.458579 472.814911,2.847488 460.091370,4.963589 
	C377.338348,4.952747 294.585327,4.940837 211.832291,4.941979 
	C210.676956,4.941995 209.521622,5.106022 207.569382,4.995721 
	C205.381653,5.059679 203.193924,5.123637 200.099380,4.963555 
	C195.730820,5.038393 191.362244,5.113231 186.179352,4.981988 
	C184.788208,5.050839 183.397064,5.119690 181.347000,4.970521 
	C180.895996,5.043085 180.444977,5.115648 179.344345,4.984185 
	C177.564941,5.051532 175.785522,5.118879 173.091339,4.963490 
	C165.392059,5.039003 157.692795,5.114515 149.341293,4.988278 
	C148.896317,5.055601 148.451340,5.122923 147.091721,4.966640 
	C122.059090,5.039795 97.026466,5.112950 71.211380,4.990380 
	C62.926868,5.885655 57.791924,10.428812 55.328239,19.288351 
	C55.276005,31.860352 55.223766,44.432350 55.021793,57.745426 
	C55.071606,58.495491 55.121418,59.245556 55.016335,60.874336 
	C55.068752,63.250496 55.121166,65.626656 55.028316,68.850449 
	C55.075912,70.565201 55.123508,72.279961 55.010777,74.738861 
z"/>
<path fill="#213049" opacity="1.000000" stroke="none" 
	d="
M480.941650,270.014404 
	C496.584747,270.125610 512.227844,270.238007 527.870911,270.346375 
	C529.651001,270.358704 531.431213,270.348053 533.105591,270.348053 
	C535.776489,286.321075 526.574585,296.750488 510.396912,296.750732 
	C363.825806,296.752960 217.254684,296.749359 70.683578,296.748383 
	C55.193680,296.748260 39.702793,296.863800 24.214161,296.724976 
	C9.526141,296.593292 0.446324,285.604767 2.717999,270.336914 
	C7.902653,270.336914 13.183790,270.385406 18.463751,270.327148 
	C30.585346,270.193420 42.706367,270.007660 55.211060,269.417480 
	C55.594490,268.991943 55.998108,268.993896 56.288891,269.295593 
	C58.389652,269.735229 60.199577,269.992706 62.009621,269.993561 
	C108.838051,270.016022 155.666489,270.011810 202.494919,270.012207 
	C204.451904,270.012207 206.408905,270.012207 208.214722,270.012207 
	C210.172836,277.792938 213.049179,280.003723 220.658463,280.004547 
	C251.488571,280.007874 282.320343,279.832184 313.147644,280.127533 
	C320.790955,280.200745 326.256134,278.469666 327.633392,270.014404 
	C378.987244,270.014404 429.964447,270.014404 480.941650,270.014404 
z"/>
<path fill="#122139" opacity="1.000000" stroke="none" 
	d="
M481.003235,269.548340 
	C429.964447,270.014404 378.987244,270.014404 327.633392,270.014404 
	C326.256134,278.469666 320.790955,280.200745 313.147644,280.127533 
	C282.320343,279.832184 251.488571,280.007874 220.658463,280.004547 
	C213.049179,280.003723 210.172836,277.792938 208.214722,270.012207 
	C206.408905,270.012207 204.451904,270.012207 202.494919,270.012207 
	C155.666489,270.011810 108.838051,270.016022 62.009621,269.993561 
	C60.199577,269.992706 58.389652,269.735229 56.289707,268.827637 
	C56.001560,257.705383 56.003380,247.352768 56.359997,237.038757 
	C59.840214,239.550888 62.752617,242.949417 66.319939,239.751099 
	C68.285355,242.053406 69.972954,244.030289 71.754707,246.454437 
	C71.848869,249.169647 71.848869,251.437561 71.848869,253.708832 
	C203.093094,253.708832 333.737305,253.708832 464.991943,253.708832 
	C464.991943,237.241486 464.991943,221.120377 465.388916,205.089890 
	C466.190552,209.480743 466.735687,213.773438 466.968140,218.082977 
	C467.347809,225.122452 467.754822,232.099869 473.150635,237.571991 
	C473.464172,232.132141 477.859894,233.730194 480.897858,233.001236 
	C480.953522,245.028244 481.009155,257.055237 481.003235,269.548340 
z"/>
<path fill="#16273F" opacity="1.000000" stroke="none" 
	d="
M201.006195,5.187593 
	C203.193924,5.123637 205.381653,5.059679 207.860657,5.520188 
	C207.017075,11.786371 207.916931,12.754580 214.028427,13.027157 
	C219.253891,13.260216 224.449097,16.148575 229.718155,13.073250 
	C230.155518,12.817979 230.991898,13.328477 231.647614,13.352186 
	C236.877609,13.541298 241.487503,16.221798 247.467117,14.683679 
	C251.735321,13.585774 257.245605,11.678847 262.697937,14.616645 
	C265.670532,16.218300 271.370026,16.180172 274.003418,14.304092 
	C280.185852,9.899605 285.652039,13.882850 291.390106,13.900920 
	C293.864258,13.908712 296.868866,14.499938 298.702850,13.347160 
	C302.452209,10.990485 305.534882,9.949686 308.586761,13.792727 
	C310.168518,13.145592 311.552551,12.058252 312.877014,12.126532 
	C319.033783,12.443931 325.173279,13.090525 331.320831,13.596808 
	C332.626007,13.704298 334.158661,14.190171 335.213531,13.699670 
	C343.589508,9.804993 349.757965,13.034606 355.035187,19.499550 
	C358.282471,14.394692 370.542542,11.172501 377.251465,12.970931 
	C381.242523,14.040796 386.510742,15.523139 389.554779,13.838536 
	C395.349304,10.631776 401.001648,11.668238 406.289703,12.699615 
	C409.635681,13.352204 412.325134,13.369479 415.134918,12.201569 
	C420.380280,10.021305 422.430542,10.580728 424.949341,15.434735 
	C427.551086,12.563862 430.211884,10.776941 434.247925,13.341713 
	C435.553864,14.171573 437.805481,13.906742 439.528717,13.601642 
	C442.772125,13.027389 445.945862,12.059836 448.334747,11.460107 
	C452.058136,14.305720 455.113007,16.976793 458.497925,19.128706 
	C461.614349,21.109938 467.394135,19.485224 468.580841,16.712503 
	C470.164673,13.011870 468.649475,10.771438 463.774689,8.667026 
	C462.574615,8.148960 461.914642,6.379796 461.006378,5.185780 
	C472.814911,2.847488 481.309052,13.458579 481.220581,23.589478 
	C480.919403,58.083855 481.094025,92.582382 480.617004,127.541077 
	C478.788696,128.950455 477.153717,129.668945 476.135620,130.898315 
	C474.528076,132.839569 473.334473,135.123657 471.965668,137.262634 
	C471.440399,137.219040 470.915131,137.175446 470.389893,137.131851 
	C469.606720,134.400360 468.337555,131.704971 468.131409,128.930603 
	C467.511597,120.589882 467.347961,112.215919 466.858459,103.863594 
	C466.820007,103.207909 465.637543,102.619263 464.876038,101.542130 
	C464.765350,75.681458 464.765350,50.278126 464.765350,24.442217 
	C461.899109,24.442217 459.927887,24.442240 457.956665,24.442215 
	C331.294922,24.440605 204.633209,24.440113 77.971481,24.426291 
	C76.149384,24.426092 74.327293,24.259289 72.070999,24.174152 
	C71.091278,25.558067 70.076759,26.936356 70.071701,28.318344 
	C70.011108,44.856621 70.081833,61.395596 70.214905,77.933609 
	C70.220497,78.629578 71.170578,79.317947 71.770683,80.401825 
	C71.803207,81.859566 71.745712,82.925339 71.327209,84.107773 
	C69.825890,87.587753 68.590759,90.958054 71.776382,94.469528 
	C71.799393,111.620087 71.733032,128.310394 71.271645,145.000839 
	C69.747627,144.771835 68.612823,144.321167 67.490608,144.350586 
	C61.588005,144.505295 58.730377,141.426819 57.899319,135.842773 
	C57.796295,135.150558 56.661308,134.611908 56.003212,133.533325 
	C56.001137,114.376335 56.000370,95.688133 55.999729,76.624954 
	C55.999760,75.500000 55.999668,74.750031 55.999809,73.571335 
	C55.999374,71.428406 55.998699,69.714203 55.998444,67.555832 
	C55.999104,64.741104 55.999340,62.370537 55.999802,59.624981 
	C55.999889,58.500027 55.999748,57.750057 55.999611,56.531425 
	C55.955250,43.564110 55.910877,31.065456 55.866508,18.566803 
	C57.791924,10.428812 62.926868,5.885655 71.592537,5.469502 
	C68.980331,15.634746 68.977829,15.641442 78.415756,19.170988 
	C79.337837,19.515827 80.360420,20.040752 81.258247,19.916710 
	C83.854660,19.557985 87.397583,19.757887 88.753693,18.179190 
	C90.821152,15.772374 92.304077,14.511423 95.306236,15.888690 
	C97.697517,16.985714 100.125153,18.003485 102.625923,19.095421 
	C102.670517,18.999372 102.903557,18.566460 103.077896,18.111074 
	C104.607971,14.114473 106.209320,10.592400 111.021179,15.217113 
	C111.590393,15.764188 113.365707,15.176344 114.547340,14.940938 
	C116.912621,14.469723 119.279350,13.966777 121.595337,13.302188 
	C122.917984,12.922643 124.141853,12.198838 125.008148,11.810340 
	C126.790115,13.597468 128.530930,15.343330 129.214050,16.028425 
	C136.517487,13.943462 142.581985,12.212191 148.525620,10.515424 
	C148.325256,8.460676 148.165817,6.825460 148.006363,5.190245 
	C148.451340,5.122923 148.896317,5.055601 149.666428,5.493387 
	C149.613434,9.050237 150.942169,10.818085 154.020676,10.953735 
	C161.022293,11.262253 168.028122,11.549889 175.033951,11.598150 
	C175.970184,11.604600 176.916351,10.173709 177.857910,9.408433 
	C177.081772,8.831203 176.198929,8.351202 175.559402,7.649481 
	C174.915695,6.943170 174.513901,6.016402 174.006119,5.186228 
	C175.785522,5.118879 177.564941,5.051532 179.673950,5.414581 
	C180.367599,6.413122 180.731644,6.981267 181.095673,7.549413 
	C181.399078,6.762455 181.702499,5.975498 182.005920,5.188540 
	C183.397064,5.119690 184.788208,5.050839 186.578735,5.438889 
	C186.406403,7.386569 185.834702,8.877348 184.912003,11.283328 
	C186.900391,11.650126 188.967117,12.721175 190.301483,12.132408 
	C192.991791,10.945347 194.757462,11.222024 196.958862,13.110825 
	C197.887680,13.907746 200.377396,13.960063 201.384125,13.251665 
	C202.190063,12.684538 202.004089,10.446625 201.928360,8.967120 
	C201.863220,7.694878 201.331573,6.446515 201.006195,5.187593 
M441.235382,18.057648 
	C440.492706,18.606312 439.750000,19.154974 439.007324,19.703638 
	C439.471069,20.125504 439.934814,20.547371 440.398560,20.969236 
	C440.900513,20.036785 441.402435,19.104334 441.235382,18.057648 
z"/>
<path fill="#1C2D45" opacity="1.000000" stroke="none" 
	d="
M460.548889,5.074687 
	C461.914642,6.379796 462.574615,8.148960 463.774689,8.667026 
	C468.649475,10.771438 470.164673,13.011870 468.580841,16.712503 
	C467.394135,19.485224 461.614349,21.109938 458.497925,19.128706 
	C455.113007,16.976793 452.058136,14.305720 448.334747,11.460107 
	C445.945862,12.059836 442.772125,13.027389 439.528717,13.601642 
	C437.805481,13.906742 435.553864,14.171573 434.247925,13.341713 
	C430.211884,10.776941 427.551086,12.563862 424.949341,15.434735 
	C422.430542,10.580728 420.380280,10.021305 415.134918,12.201569 
	C412.325134,13.369479 409.635681,13.352204 406.289703,12.699615 
	C401.001648,11.668238 395.349304,10.631776 389.554779,13.838536 
	C386.510742,15.523139 381.242523,14.040796 377.251465,12.970931 
	C370.542542,11.172501 358.282471,14.394692 355.035187,19.499550 
	C349.757965,13.034606 343.589508,9.804993 335.213531,13.699670 
	C334.158661,14.190171 332.626007,13.704298 331.320831,13.596808 
	C325.173279,13.090525 319.033783,12.443931 312.877014,12.126532 
	C311.552551,12.058252 310.168518,13.145592 308.586761,13.792727 
	C305.534882,9.949686 302.452209,10.990485 298.702850,13.347160 
	C296.868866,14.499938 293.864258,13.908712 291.390106,13.900920 
	C285.652039,13.882850 280.185852,9.899605 274.003418,14.304092 
	C271.370026,16.180172 265.670532,16.218300 262.697937,14.616645 
	C257.245605,11.678847 251.735321,13.585774 247.467117,14.683679 
	C241.487503,16.221798 236.877609,13.541298 231.647614,13.352186 
	C230.991898,13.328477 230.155518,12.817979 229.718155,13.073250 
	C224.449097,16.148575 219.253891,13.260216 214.028427,13.027157 
	C207.916931,12.754580 207.017075,11.786371 208.259094,5.619079 
	C209.521622,5.106022 210.676956,4.941995 211.832291,4.941979 
	C294.585327,4.940837 377.338348,4.952747 460.548889,5.074687 
z"/>
<path fill="#14243C" opacity="1.000000" stroke="none" 
	d="
M464.986755,101.999466 
	C465.637543,102.619263 466.820007,103.207909 466.858459,103.863594 
	C467.347961,112.215919 467.511597,120.589882 468.131409,128.930603 
	C468.337555,131.704971 469.606720,134.400360 470.389893,137.131851 
	C470.915131,137.175446 471.440399,137.219040 471.965668,137.262634 
	C473.334473,135.123657 474.528076,132.839569 476.135620,130.898315 
	C477.153717,129.668945 478.788696,128.950455 480.524811,128.001831 
	C480.970337,155.388824 481.043365,182.776794 481.102203,210.164825 
	C481.117889,217.469711 481.089996,224.774719 480.989990,232.540451 
	C477.859894,233.730194 473.464172,232.132141 473.150635,237.571991 
	C467.754822,232.099869 467.347809,225.122452 466.968140,218.082977 
	C466.735687,213.773438 466.190552,209.480743 465.277283,204.632782 
	C464.757141,186.651581 464.708466,169.218048 464.744751,151.784668 
	C464.779297,135.189514 464.902527,118.594536 464.986755,101.999466 
z"/>
<path fill="#1C2D45" opacity="1.000000" stroke="none" 
	d="
M147.549042,5.078443 
	C148.165817,6.825460 148.325256,8.460676 148.525620,10.515424 
	C142.581985,12.212191 136.517487,13.943462 129.214050,16.028425 
	C128.530930,15.343330 126.790115,13.597468 125.008148,11.810340 
	C124.141853,12.198838 122.917984,12.922643 121.595337,13.302188 
	C119.279350,13.966777 116.912621,14.469723 114.547340,14.940938 
	C113.365707,15.176344 111.590393,15.764188 111.021179,15.217113 
	C106.209320,10.592400 104.607971,14.114473 103.077896,18.111074 
	C102.903557,18.566460 102.670517,18.999372 102.625923,19.095421 
	C100.125153,18.003485 97.697517,16.985714 95.306236,15.888690 
	C92.304077,14.511423 90.821152,15.772374 88.753693,18.179190 
	C87.397583,19.757887 83.854660,19.557985 81.258247,19.916710 
	C80.360420,20.040752 79.337837,19.515827 78.415756,19.170988 
	C68.977829,15.641442 68.980331,15.634746 71.983765,5.567365 
	C97.026466,5.112950 122.059090,5.039795 147.549042,5.078443 
z"/>
<path fill="#17273E" opacity="1.000000" stroke="none" 
	d="
M55.999603,76.999939 
	C56.000370,95.688133 56.001137,114.376335 56.001923,134.001709 
	C56.003029,168.959320 56.004112,202.979736 56.005199,237.000153 
	C56.003380,247.352768 56.001560,257.705383 55.998924,268.525940 
	C55.998108,268.993896 55.594490,268.991943 55.392685,268.992828 
	C55.129002,267.834747 55.013008,266.675751 55.012985,265.516785 
	C55.011684,202.988571 55.020138,140.460373 55.305992,77.466248 
	C55.584393,77.000336 55.999603,76.999939 55.999603,76.999939 
z"/>
<path fill="#1C2D45" opacity="1.000000" stroke="none" 
	d="
M173.548737,5.074860 
	C174.513901,6.016402 174.915695,6.943170 175.559402,7.649481 
	C176.198929,8.351202 177.081772,8.831203 177.857910,9.408433 
	C176.916351,10.173709 175.970184,11.604600 175.033951,11.598150 
	C168.028122,11.549889 161.022293,11.262253 154.020676,10.953735 
	C150.942169,10.818085 149.613434,9.050237 149.992538,5.594261 
	C157.692795,5.114515 165.392059,5.039003 173.548737,5.074860 
z"/>
<path fill="#1C2D45" opacity="1.000000" stroke="none" 
	d="
M200.552795,5.075574 
	C201.331573,6.446515 201.863220,7.694878 201.928360,8.967120 
	C202.004089,10.446625 202.190063,12.684538 201.384125,13.251665 
	C200.377396,13.960063 197.887680,13.907746 196.958862,13.110825 
	C194.757462,11.222024 192.991791,10.945347 190.301483,12.132408 
	C188.967117,12.721175 186.900391,11.650126 184.912003,11.283328 
	C185.834702,8.877348 186.406403,7.386569 186.985901,5.541928 
	C191.362244,5.113231 195.730820,5.038393 200.552795,5.075574 
z"/>
<path fill="#1C2D45" opacity="1.000000" stroke="none" 
	d="
M55.597374,18.927578 
	C55.910877,31.065456 55.955250,43.564110 55.792603,56.531578 
	C55.585587,57.000393 55.171532,57.004353 55.171532,57.004353 
	C55.223766,44.432350 55.276005,31.860352 55.597374,18.927578 
z"/>
<path fill="#1C2D45" opacity="1.000000" stroke="none" 
	d="
M55.999573,59.999969 
	C55.999340,62.370537 55.999104,64.741104 55.792351,67.556519 
	C55.585831,68.001373 55.173580,68.002815 55.173580,68.002815 
	C55.121166,65.626656 55.068752,63.250496 55.300430,60.437012 
	C55.584522,59.999691 55.999573,59.999969 55.999573,59.999969 
z"/>
<path fill="#17273E" opacity="1.000000" stroke="none" 
	d="
M55.100948,68.426636 
	C55.173580,68.002815 55.585831,68.001373 55.791924,68.000687 
	C55.998699,69.714203 55.999374,71.428406 55.792702,73.571091 
	C55.585350,73.999573 55.171104,73.994713 55.171104,73.994713 
	C55.123508,72.279961 55.075912,70.565201 55.100948,68.426636 
z"/>
<path fill="#1C2D45" opacity="1.000000" stroke="none" 
	d="
M181.676453,5.079531 
	C181.702499,5.975498 181.399078,6.762455 181.095673,7.549413 
	C180.731644,6.981267 180.367599,6.413122 179.998764,5.516594 
	C180.444977,5.115648 180.895996,5.043085 181.676453,5.079531 
z"/>
<path fill="#1C2D45" opacity="1.000000" stroke="none" 
	d="
M55.090942,74.366791 
	C55.171104,73.994713 55.585350,73.999573 55.792461,73.999817 
	C55.999668,74.750031 55.999760,75.500000 55.999729,76.624954 
	C55.999603,76.999939 55.584393,77.000336 55.377663,77.002815 
	C55.117550,76.249817 55.064163,75.494339 55.090942,74.366791 
z"/>
<path fill="#17273E" opacity="1.000000" stroke="none" 
	d="
M55.999802,59.624981 
	C55.999573,59.999969 55.584522,59.999691 55.377876,59.997658 
	C55.121418,59.245556 55.071606,58.495491 55.096664,57.374889 
	C55.171532,57.004353 55.585587,57.000393 55.792595,57.000244 
	C55.999748,57.750057 55.999889,58.500027 55.999802,59.624981 
z"/>
<path fill="#FDFDFD" opacity="1.000000" stroke="none" 
	d="
M464.876038,101.542130 
	C464.902527,118.594536 464.779297,135.189514 464.744751,151.784668 
	C464.708466,169.218048 464.757141,186.651581 464.880310,204.542175 
	C464.991943,221.120377 464.991943,237.241486 464.991943,253.708832 
	C333.737305,253.708832 203.093094,253.708832 71.848869,253.708832 
	C71.848869,251.437561 71.848869,249.169647 71.852173,245.994446 
	C71.793060,217.727081 71.730644,190.366989 71.764343,162.636200 
	C71.796082,161.507935 71.731689,160.750397 71.758827,159.666016 
	C71.789238,158.895050 71.728127,158.450928 71.763550,157.564484 
	C71.796806,154.412369 71.733528,151.702576 71.762665,148.599915 
	C71.792274,147.138275 71.729469,146.069489 71.666664,145.000702 
	C71.733032,128.310394 71.799393,111.620087 71.872360,94.022919 
	C71.815376,90.074409 71.751793,87.032753 71.688202,83.991104 
	C71.745712,82.925339 71.803207,81.859566 71.867493,79.941498 
	C71.883942,63.558468 71.864639,48.027615 71.930161,32.497124 
	C71.941872,29.720737 72.304573,26.945831 72.505203,24.170242 
	C74.327293,24.259289 76.149384,24.426092 77.971481,24.426291 
	C204.633209,24.440113 331.294922,24.440605 457.956665,24.442215 
	C459.927887,24.442240 461.899109,24.442217 464.765350,24.442217 
	C464.765350,50.278126 464.765350,75.681458 464.876038,101.542130 
M141.993927,80.974564 
	C141.993927,80.974564 141.927917,80.937370 141.244644,80.900703 
	C140.144592,81.584946 139.044525,82.269180 138.000000,83.000000 
	C138.000000,83.000000 137.946732,82.950882 137.214920,83.313843 
	C137.117722,84.934242 137.311859,86.639336 136.869934,88.159523 
	C135.413605,93.169365 137.901901,94.301651 142.769974,93.903175 
	C145.911530,94.311783 149.053101,94.720390 153.006393,95.095718 
	C157.946960,94.282104 163.036499,92.066582 167.414246,96.680885 
	C167.565170,96.839973 168.436615,96.315491 169.730118,96.081993 
	C173.645859,93.632706 177.561615,91.183418 181.406601,88.778389 
	C180.328415,86.667290 179.665619,85.369545 179.115845,83.371712 
	C178.750305,82.882858 178.384750,82.394005 178.019531,81.998962 
	C178.019531,81.998962 178.113342,81.999458 178.368973,81.130638 
	C177.373444,77.201836 177.244171,72.726479 175.187698,69.467049 
	C171.748962,64.016792 168.916412,58.894791 168.755661,52.101189 
	C168.589111,45.062214 161.792969,41.561962 155.295166,44.282436 
	C151.690399,45.791660 150.387878,49.396797 152.073608,53.494965 
	C152.111969,53.667522 152.150330,53.840076 151.922440,54.778378 
	C149.702713,59.707710 147.479599,64.635521 145.265045,69.567177 
	C144.475311,71.325867 143.706268,73.093842 142.485611,75.427734 
	C142.390640,76.615288 142.295670,77.802841 141.977875,79.469803 
	C141.985870,79.645851 141.993851,79.821892 141.716171,80.440857 
	C141.793427,80.598633 141.870667,80.756416 141.993927,80.974564 
M357.641785,94.166740 
	C360.064850,94.017212 362.487915,93.867683 365.728119,93.749336 
	C368.994812,92.036049 372.317017,90.415154 375.473480,88.518387 
	C375.998840,88.202698 375.802216,86.685600 376.780884,86.012527 
	C379.065247,86.181358 381.349609,86.350189 383.634003,86.519020 
	C383.605804,86.833984 383.577606,87.148949 383.549408,87.463913 
	C381.846863,87.869934 380.144348,88.275948 378.441803,88.681969 
	C378.484528,88.989922 378.527283,89.297867 378.570007,89.605820 
	C380.310760,90.088043 382.051544,90.570274 383.792297,91.052498 
	C383.771149,91.437675 383.750000,91.822853 383.728851,92.208023 
	C381.362152,92.569145 378.995422,92.930267 376.628723,93.291389 
	C379.943817,93.455086 384.506683,96.526077 385.714600,91.157166 
	C386.299438,88.557701 387.388092,83.903374 381.619568,83.533836 
	C381.574402,83.099747 381.529205,82.665657 382.134613,82.251823 
	C385.206848,82.742218 385.937500,80.920418 386.688568,78.253159 
	C392.799194,73.257736 394.744080,64.806396 391.783752,56.112095 
	C388.790161,47.320099 378.169830,40.697857 369.388733,42.147770 
	C358.504730,43.944916 351.179016,52.139088 350.703369,62.252708 
	C350.215485,72.625938 355.763275,78.958351 363.127045,83.990631 
	C359.192047,84.032379 355.253937,84.189667 351.322968,84.083176 
	C347.441010,83.978004 346.009247,85.834534 345.950989,89.541267 
	C345.889832,93.432686 347.941101,94.437126 351.313995,94.210052 
	C352.971130,94.098488 354.638153,94.133888 356.505157,94.106087 
	C356.505157,94.106087 356.707275,94.075073 357.641785,94.166740 
M228.462372,67.061928 
	C228.346039,67.364494 228.229706,67.667061 227.980148,68.895149 
	C228.030640,73.274330 228.081116,77.653503 228.057846,82.497208 
	C228.057846,82.497208 228.184769,82.950096 228.492279,83.690239 
	C235.491135,84.549370 242.489990,85.408501 249.947266,86.323898 
	C249.947266,79.809204 249.947266,73.896751 249.942856,67.459770 
	C249.638519,67.340492 249.334198,67.221214 248.100128,66.947960 
	C241.727554,66.987526 235.354965,67.027092 228.462372,67.061928 
M271.495514,86.045822 
	C271.659393,86.013054 271.823273,85.980293 272.914124,86.109520 
	C285.570801,86.122452 298.227478,86.153954 310.884125,86.141403 
	C318.578552,86.133774 322.849457,81.946747 322.948090,74.131355 
	C323.053162,65.805862 322.825684,57.474476 323.029480,49.152676 
	C323.121582,45.391945 321.689850,44.221699 318.055145,44.262608 
	C305.066895,44.408794 292.075958,44.293957 279.086151,44.331284 
	C272.829742,44.349266 269.962494,47.135078 269.895844,53.433689 
	C269.795410,62.925282 269.811829,72.419037 269.903107,81.910683 
	C269.915802,83.228493 270.638458,84.539482 271.495514,86.045822 
M284.645538,212.069885 
	C285.404388,211.705780 286.163208,211.341660 287.627777,210.906906 
	C298.911438,205.143219 307.022125,196.424866 312.660522,184.621750 
	C313.081726,184.823730 313.502960,185.025711 313.959473,185.879654 
	C314.632538,186.925964 315.305634,187.972290 316.108276,189.497971 
	C316.108276,189.497971 316.478729,189.828690 316.478729,189.828690 
	C316.478729,189.828690 316.966003,189.732788 317.640686,189.934036 
	C318.102997,189.879852 318.565338,189.825684 319.578217,189.897415 
	C320.035370,189.593994 320.492523,189.290558 321.668182,188.906403 
	C336.785248,182.222641 351.902283,175.538879 367.597931,168.904160 
	C368.069885,168.606598 368.541840,168.309036 369.699799,167.937698 
	C371.140564,167.226425 372.581329,166.515167 374.577026,165.824509 
	C374.850586,165.594269 375.124146,165.364029 376.001648,164.890961 
	C379.880859,161.090332 375.528778,158.251816 374.899811,154.417923 
	C374.643402,154.155914 374.386993,153.893921 374.089905,152.971375 
	C373.641296,151.970840 373.192688,150.970306 372.771942,149.441452 
	C372.554596,149.178513 372.337250,148.915558 372.106598,147.932404 
	C369.417084,141.623184 366.727570,135.313965 364.035370,128.318192 
	C363.781311,127.953575 363.527222,127.588966 363.339508,126.528557 
	C362.978912,125.623627 362.649933,124.704559 362.252563,123.816086 
	C359.729889,118.175484 359.166779,117.929893 353.449158,120.347610 
	C350.594421,121.554771 347.801392,122.907822 344.496246,124.120010 
	C344.496246,124.120010 344.047455,124.316597 343.465332,124.010231 
	C342.911316,123.351799 342.357269,122.693375 341.740143,121.622231 
	C341.587830,121.333565 341.352051,121.223122 340.734680,120.917931 
	C340.734680,120.917931 340.257721,120.938759 339.765472,120.517082 
	C339.526062,120.157013 339.286621,119.796944 338.703369,118.835846 
	C335.508636,106.393150 325.531281,98.299484 313.024628,98.724220 
	C300.746277,99.141205 291.029297,106.402214 287.821777,118.869530 
	C285.294830,128.691650 280.832886,137.283249 273.560303,144.374069 
	C262.982941,136.320465 255.127884,132.670959 242.254929,129.251312 
	C222.779739,124.077797 203.282730,118.965813 183.928436,113.366447 
	C174.084442,110.518501 175.245392,112.059921 174.314423,120.759811 
	C174.228302,121.564705 174.348969,122.446732 174.593719,123.223595 
	C177.347137,131.962814 179.933090,140.763565 183.009308,149.388962 
	C184.794693,154.395004 205.355484,178.844452 209.995911,181.246429 
	C216.197067,184.456314 222.789658,186.910004 229.359558,189.751328 
	C218.764450,197.417572 206.782089,202.256409 193.054291,201.145798 
	C193.869568,183.248734 181.717133,169.058594 165.274673,167.081116 
	C144.346756,164.564178 128.234543,181.079468 130.057526,202.190826 
	C131.173157,215.110321 141.988098,226.844620 155.377914,229.663666 
	C168.539230,232.434601 183.160355,225.686539 189.768509,214.396225 
	C195.776245,225.257385 204.584061,233.027069 216.116302,238.439163 
	C216.116302,238.439163 216.490311,238.700134 216.490311,238.700134 
	C216.490311,238.700134 216.939987,238.624161 217.604523,238.940109 
	C218.079727,238.880127 218.554947,238.820145 219.502609,238.869095 
	C219.859604,238.574631 220.216599,238.280167 221.148056,237.574921 
	C227.618881,229.423950 234.089722,221.272980 240.429428,213.287170 
	C242.087982,213.553955 243.523117,213.784790 245.342911,214.396698 
	C245.860458,214.444977 246.378021,214.493256 247.569748,214.823120 
	C248.049728,214.845993 248.529724,214.868866 249.487762,215.116013 
	C249.657486,215.069397 249.827225,215.022766 250.646851,215.218292 
	C251.771851,215.403458 252.896851,215.588623 254.491959,215.945236 
	C254.653427,215.903381 254.814896,215.861542 255.892593,215.992111 
	C259.935272,215.942047 263.977966,215.891998 268.721527,215.970016 
	C269.584778,215.684113 270.447998,215.398209 271.881989,215.240524 
	C272.255615,215.149323 272.629242,215.058136 273.510193,215.107590 
	C273.668732,215.032394 273.827301,214.957199 274.709015,214.973816 
	C275.169342,214.827789 275.629700,214.681747 276.609741,214.681198 
	C277.082214,214.458405 277.554718,214.235611 278.751617,214.065994 
	C280.501709,213.372620 282.251801,212.679245 284.645538,212.069885 
M250.159225,51.662952 
	C250.159225,49.609028 250.159225,47.555107 250.159225,45.359291 
	C242.350006,46.377026 235.357193,47.288364 228.407440,48.194088 
	C228.407440,53.912865 228.407440,59.254684 228.407440,64.438248 
	C235.843887,64.438248 242.858444,64.438248 250.159653,64.438248 
	C250.159653,60.215717 250.159653,56.417751 250.159225,51.662952 
M215.667801,64.874359 
	C218.949875,64.874359 222.231964,64.874359 225.697693,64.874359 
	C225.697693,59.304691 225.697693,54.257801 225.697693,48.636204 
	C222.712189,49.032661 220.114548,49.288540 217.549957,49.734520 
	C209.149139,51.195408 209.410736,51.231548 209.107162,59.389759 
	C208.941772,63.833996 210.345978,65.605782 215.667801,64.874359 
M212.891220,81.765106 
	C215.499466,82.139641 218.103317,82.549126 220.717285,82.878189 
	C223.010635,83.166908 225.402756,83.789474 226.020523,80.303177 
	C227.169373,73.819809 226.017303,67.164566 223.372528,67.012756 
	C218.823837,66.751678 214.249344,66.940521 209.251587,66.940521 
	C209.251587,71.334648 209.060608,75.120491 209.378799,78.863052 
	C209.463959,79.864586 211.103668,80.733955 212.891220,81.765106 
M392.318329,84.095901 
	C390.602905,84.270851 388.887451,84.445801 387.172028,84.620758 
	C387.212616,84.989937 387.253174,85.359123 387.293732,85.728310 
	C389.719971,86.059761 392.146210,86.391220 394.572449,86.722672 
	C390.862091,88.175774 385.615265,86.838646 387.300293,93.841797 
	C390.364502,93.841797 393.344208,93.841797 396.323883,93.841797 
	C396.342987,93.609879 396.362061,93.377968 396.381134,93.146049 
	C393.976501,92.880478 391.571869,92.614906 389.755157,92.414261 
	C392.279053,90.548027 394.630280,88.809494 396.981476,87.070953 
	C395.708893,86.080338 394.436279,85.089722 392.318329,84.095901 
z"/>
<path fill="#14243C" opacity="1.000000" stroke="none" 
	d="
M71.667015,158.006790 
	C71.728127,158.450928 71.789238,158.895050 71.418900,159.677368 
	C70.374588,160.545898 69.761734,161.076248 69.148880,161.606583 
	C69.988663,162.073364 70.828445,162.540131 71.668228,163.006897 
	C71.730644,190.366989 71.793060,217.727081 71.758011,245.547165 
	C69.972954,244.030289 68.285355,242.053406 66.319939,239.751099 
	C62.752617,242.949417 59.840214,239.550888 56.359997,237.038757 
	C56.004112,202.979736 56.003029,168.959320 56.003231,134.470505 
	C56.661308,134.611908 57.796295,135.150558 57.899319,135.842773 
	C58.730377,141.426819 61.588005,144.505295 67.490608,144.350586 
	C68.612823,144.321167 69.747627,144.771835 71.271645,145.000839 
	C71.729469,146.069489 71.792274,147.138275 71.398689,148.609955 
	C70.032516,150.066544 68.180099,151.814590 68.363251,152.063232 
	C69.730606,153.919540 67.301445,157.965897 71.667015,158.006790 
z"/>
<path fill="#1C2D45" opacity="1.000000" stroke="none" 
	d="
M72.070999,24.174152 
	C72.304573,26.945831 71.941872,29.720737 71.930161,32.497124 
	C71.864639,48.027615 71.883942,63.558468 71.777466,79.549530 
	C71.170578,79.317947 70.220497,78.629578 70.214905,77.933609 
	C70.081833,61.395596 70.011108,44.856621 70.071701,28.318344 
	C70.076759,26.936356 71.091278,25.558067 72.070999,24.174152 
z"/>
<path fill="#1C2D45" opacity="1.000000" stroke="none" 
	d="
M71.327202,84.107773 
	C71.751793,87.032753 71.815376,90.074409 71.782990,93.562668 
	C68.590759,90.958054 69.825890,87.587753 71.327202,84.107773 
z"/>
<path fill="#1C2D45" opacity="1.000000" stroke="none" 
	d="
M441.569885,18.114765 
	C441.402435,19.104334 440.900513,20.036785 440.398560,20.969236 
	C439.934814,20.547371 439.471069,20.125504 439.007324,19.703638 
	C439.750000,19.154974 440.492706,18.606312 441.569885,18.114765 
z"/>
<path fill="#08223D" opacity="1.000000" stroke="none" 
	d="
M340.257721,120.938759 
	C340.257721,120.938759 340.734680,120.917931 340.970306,121.267105 
	C341.364166,121.814133 341.563263,121.953690 341.803223,122.034943 
	C342.357269,122.693375 342.911316,123.351799 343.858337,124.287140 
	C344.251373,124.564041 344.692291,124.564224 344.692291,124.564224 
	C344.692291,124.564224 344.980438,124.194893 344.980438,124.194885 
	C347.801392,122.907822 350.594421,121.554771 353.449158,120.347610 
	C359.166779,117.929893 359.729889,118.175484 362.252563,123.816086 
	C362.649933,124.704559 362.978912,125.623627 363.294098,127.224243 
	C363.511841,128.281540 363.774963,128.643143 364.038086,129.004745 
	C366.727570,135.313965 369.417084,141.623184 372.130920,148.547226 
	C372.351532,149.431290 372.547791,149.700531 372.744080,149.969772 
	C373.192688,150.970306 373.641296,151.970840 374.138550,153.568115 
	C374.406036,154.438110 374.624908,154.711395 374.843750,154.984665 
	C375.528778,158.251816 379.880859,161.090332 375.432007,165.032425 
	C374.582275,165.383911 374.302185,165.593918 374.022095,165.803925 
	C372.581329,166.515167 371.140564,167.226425 369.069550,167.980209 
	C367.965973,168.300186 367.492645,168.577652 367.019318,168.855133 
	C351.902283,175.538879 336.785248,182.222641 321.035919,188.956268 
	C319.944977,189.261276 319.486328,189.516388 319.027649,189.771515 
	C318.565338,189.825684 318.102997,189.879852 317.182800,189.660400 
	C316.516541,189.182297 316.267792,189.059570 315.978729,189.018616 
	C315.305634,187.972290 314.632538,186.925964 313.856445,185.296036 
	C313.159790,184.729477 312.566101,184.746521 311.972443,184.763580 
	C307.022125,196.424866 298.911438,205.143219 286.944946,210.943878 
	C285.508728,211.315857 284.755310,211.650864 284.001892,211.985870 
	C282.251801,212.679245 280.501709,213.372620 278.128967,214.032043 
	C277.034210,214.177292 276.562134,214.356491 276.090027,214.535706 
	C275.629700,214.681747 275.169342,214.827789 274.249023,214.776657 
	C273.526978,214.708649 273.264923,214.837784 273.002869,214.966934 
	C272.629242,215.058136 272.255615,215.149323 271.241089,215.143417 
	C269.740326,215.311523 268.880463,215.576721 268.020630,215.841934 
	C263.977966,215.891998 259.935272,215.942047 255.349060,215.763245 
	C254.479599,215.326996 254.218369,215.406799 254.021851,215.773788 
	C252.896851,215.588623 251.771851,215.403458 250.242050,214.933289 
	C249.561401,214.729431 249.285553,214.810593 249.009705,214.891739 
	C248.529724,214.868866 248.049728,214.845993 247.029388,214.521149 
	C245.978760,214.151321 245.468506,214.083481 244.958252,214.015625 
	C243.523117,213.784790 242.087982,213.553955 240.429428,213.287170 
	C234.089722,221.272980 227.618881,229.423950 220.632584,237.796692 
	C219.754791,238.265686 219.392471,238.512924 219.030151,238.760147 
	C218.554947,238.820145 218.079727,238.880127 217.134308,238.625153 
	C216.432266,238.136292 216.171432,238.048874 215.881607,238.047913 
	C204.584061,233.027069 195.776245,225.257385 189.464081,213.826859 
	C188.690216,209.868668 188.220795,206.479858 187.728973,203.092651 
	C187.706573,203.094269 187.694290,203.136780 188.086685,203.037979 
	C189.987778,202.643143 191.496460,202.347092 193.005157,202.051056 
	C206.782089,202.256409 218.764450,197.417572 229.359558,189.751328 
	C222.789658,186.910004 216.197067,184.456314 209.995911,181.246429 
	C205.355484,178.844452 184.794693,154.395004 183.009308,149.388962 
	C179.933090,140.763565 177.347137,131.962814 174.593719,123.223595 
	C174.348969,122.446732 174.228302,121.564705 174.314423,120.759811 
	C175.245392,112.059921 174.084442,110.518501 183.928436,113.366447 
	C203.282730,118.965813 222.779739,124.077797 242.254929,129.251312 
	C255.127884,132.670959 262.982941,136.320465 273.560303,144.374069 
	C280.832886,137.283249 285.294830,128.691650 287.821777,118.869530 
	C291.029297,106.402214 300.746277,99.141205 313.024628,98.724220 
	C325.531281,98.299484 335.508636,106.393150 338.954315,119.475868 
	C339.556091,120.390175 339.906891,120.664467 340.257721,120.938759 
M353.436310,133.390945 
	C353.307343,133.965393 353.178345,134.539841 352.998016,135.841736 
	C351.459595,139.609634 349.921173,143.377533 347.655792,147.062347 
	C347.412079,147.053192 347.168365,147.044037 346.261627,146.685181 
	C346.020142,144.937698 345.229675,143.040924 345.655548,141.474930 
	C346.453247,138.541519 347.955475,135.799698 349.601471,132.611984 
	C349.731110,132.067856 349.860748,131.523712 349.985443,130.219711 
	C348.844482,130.125626 347.540436,129.623871 346.589386,130.004395 
	C340.926483,132.270203 335.326019,134.696411 329.741394,137.152359 
	C323.049438,140.095261 316.394379,143.121994 309.241821,146.328262 
	C311.296265,147.175400 312.670380,147.742004 314.428772,148.689651 
	C314.952484,148.792542 315.476196,148.895447 316.776031,148.972687 
	C319.531677,149.772552 322.287292,150.572418 325.220917,151.656540 
	C325.379028,151.825287 325.570923,151.934921 326.088745,152.587402 
	C326.117462,153.253235 326.146149,153.919067 325.797607,155.228607 
	C325.128601,155.513107 324.459564,155.797592 323.035400,156.091049 
	C317.479675,154.266800 311.923920,152.442535 305.415985,150.305618 
	C309.600616,160.626968 313.313538,169.784866 317.027283,179.524078 
	C317.297577,180.008575 317.567871,180.493057 318.242523,181.597321 
	C319.260223,181.898209 320.464722,182.706085 321.263184,182.411911 
	C324.661041,181.160065 327.938446,179.581360 331.260284,178.122971 
	C344.391022,172.358139 357.521912,166.593643 370.670044,160.821442 
	C369.692200,158.016541 368.830627,155.545197 367.962067,152.474792 
	C367.667816,151.986877 367.373566,151.498962 366.661865,150.415161 
	C364.097778,143.967133 361.533722,137.519104 358.966034,130.477997 
	C358.681000,129.990295 358.395966,129.502594 357.714142,128.532074 
	C357.351227,127.868690 356.988312,127.205307 356.530518,126.368507 
	C355.557739,128.829910 354.731110,130.921463 353.436310,133.390945 
M252.095215,209.880463 
	C258.924561,209.872391 265.753937,209.864319 273.233521,209.920273 
	C273.806519,209.687683 274.379486,209.455093 275.690826,208.970001 
	C292.815826,205.054611 302.515503,193.111938 309.639099,177.567825 
	C309.525818,176.737595 309.412506,175.907379 308.959930,174.405914 
	C305.654388,166.435516 302.551910,158.372086 298.960297,150.532761 
	C297.073761,146.415085 298.389557,144.335938 302.096283,142.811447 
	C305.320251,141.485519 308.603668,140.255722 311.690857,138.655502 
	C318.947906,134.893890 328.095093,133.838379 331.821747,124.879662 
	C331.983856,124.489929 332.587677,124.283936 333.482361,123.667328 
	C333.616241,123.301414 333.750122,122.935509 333.634155,121.928780 
	C330.758881,111.187584 324.451538,105.301613 315.461487,104.970200 
	C304.977631,104.583702 296.864227,109.411285 294.260101,118.774918 
	C291.134979,130.011765 286.722076,140.362961 278.127380,148.559341 
	C279.108704,150.471313 280.352325,152.021683 280.646667,153.735138 
	C280.896637,155.190399 280.051239,156.833817 279.690521,158.393997 
	C278.273529,157.786880 276.096252,157.564560 275.562714,156.510345 
	C272.045837,149.561081 266.151367,144.958466 259.421814,142.269455 
	C248.704697,137.987122 237.566727,134.675110 226.453369,131.487473 
	C211.252045,127.127274 195.907013,123.268051 180.537567,119.171158 
	C180.083878,130.474792 184.708557,137.869446 194.295105,141.287399 
	C197.395523,142.392822 200.737808,142.854126 203.775406,144.087860 
	C205.405334,144.749863 206.623260,146.426224 208.027100,147.644867 
	C206.269760,148.226486 204.366592,149.558182 202.782196,149.250168 
	C197.880173,148.297195 193.099518,146.719818 188.271729,145.384842 
	C187.972672,145.677689 187.673615,145.970520 187.374542,146.263367 
	C190.346603,149.916748 193.021637,153.872421 196.360184,157.152832 
	C201.392822,162.097855 208.048813,163.729446 214.791641,165.079071 
	C216.354324,165.391876 217.660965,166.983795 219.085419,167.987122 
	C217.495346,168.670654 215.920105,169.874039 214.311874,169.919876 
	C211.683090,169.994781 209.032822,169.315750 206.118027,168.917389 
	C206.420197,169.923767 206.438431,170.282333 206.617371,170.519791 
	C207.015396,171.048019 207.469421,171.540619 207.943115,172.004318 
	C218.050705,181.898514 230.565918,183.682556 243.940857,182.899551 
	C245.431442,182.812271 247.006836,184.174072 248.542908,184.863846 
	C247.378159,185.935913 246.362534,187.275864 245.017731,188.024445 
	C242.195160,189.595566 239.110458,190.696854 236.292770,192.275513 
	C229.650314,195.997070 223.408554,200.635971 216.427521,203.494019 
	C209.509598,206.326263 201.884552,207.431351 193.777130,209.495789 
	C196.495972,213.662140 199.227844,217.848450 202.268768,222.508347 
	C209.792267,217.290878 216.681107,212.513535 223.569931,207.736191 
	C224.069275,208.304642 224.568619,208.873093 225.067963,209.441544 
	C219.693283,215.277710 214.318619,221.113876 208.653580,227.265350 
	C211.537689,229.047195 214.311584,230.760956 217.450546,232.700256 
	C224.582886,223.728027 231.497559,215.029602 238.524094,206.190475 
	C240.804489,206.977890 242.966095,207.724274 245.516464,208.775055 
	C246.001877,208.853210 246.487305,208.931351 247.525314,208.993271 
	C247.698288,209.056808 247.871262,209.120346 248.537506,209.656250 
	C249.441238,209.739151 250.344955,209.822052 252.095215,209.880463 
z"/>
<path fill="#46AD60" opacity="1.000000" stroke="none" 
	d="
M187.751358,203.091034 
	C188.220795,206.479858 188.690216,209.868668 189.186035,213.652802 
	C183.160355,225.686539 168.539230,232.434601 155.377914,229.663666 
	C141.988098,226.844620 131.173157,215.110321 130.057526,202.190826 
	C128.234543,181.079468 144.346756,164.564178 165.274673,167.081116 
	C181.717133,169.058594 193.869568,183.248734 193.029724,201.598419 
	C191.496460,202.347092 189.987778,202.643143 188.180969,202.605072 
	C188.495865,193.624191 184.836670,188.563919 179.396957,189.329117 
	C177.673203,187.671539 176.305511,186.356369 174.956635,185.025665 
	C174.975464,185.010117 174.958069,185.037430 175.053772,184.816925 
	C175.064056,184.264725 174.863815,184.032074 174.241806,183.612366 
	C171.683105,182.925858 169.109497,181.421432 168.017151,185.022781 
	C168.002808,184.998291 168.043411,185.038834 167.691711,184.934235 
	C165.440552,187.423813 163.541061,190.018021 161.864120,192.308289 
	C153.742416,189.825714 145.772812,187.389648 136.629578,184.594818 
	C138.041718,189.665787 137.381378,194.165558 142.005707,196.507233 
	C141.983810,196.500565 142.000839,196.458054 141.906418,196.849854 
	C144.338226,200.334961 146.864471,203.428253 149.879333,207.119843 
	C146.777420,207.991776 143.456802,208.925186 138.656815,210.274429 
	C141.176346,213.212921 143.103363,215.861832 145.436661,218.084213 
	C148.652634,221.147339 150.975174,220.286530 151.977631,215.970184 
	C151.995911,215.998306 151.934158,215.972061 152.270966,215.925980 
	C154.185928,215.197678 155.725449,214.399338 157.350616,213.858307 
	C160.373856,212.851868 163.447037,211.995346 166.837341,211.077789 
	C173.220688,206.321564 180.422668,204.543091 187.751358,203.091034 
z"/>
<path fill="#48B559" opacity="1.000000" stroke="none" 
	d="
M271.032471,85.853638 
	C270.638458,84.539482 269.915802,83.228493 269.903107,81.910683 
	C269.811829,72.419037 269.795410,62.925282 269.895844,53.433689 
	C269.962494,47.135078 272.829742,44.349266 279.086151,44.331284 
	C292.075958,44.293957 305.066895,44.408794 318.055145,44.262608 
	C321.689850,44.221699 323.121582,45.391945 323.029480,49.152676 
	C322.825684,57.474476 323.053162,65.805862 322.948090,74.131355 
	C322.849457,81.946747 318.578552,86.133774 310.884125,86.141403 
	C298.227478,86.153954 285.570801,86.122452 272.374908,85.866486 
	C271.567963,85.700180 271.300201,85.776909 271.032471,85.853638 
M295.496094,80.711945 
	C296.082947,79.771034 297.393188,78.354027 297.138458,77.966965 
	C295.560608,75.569389 296.462311,73.912895 297.789429,71.723663 
	C300.641418,67.018906 300.469421,61.842590 298.236481,56.952946 
	C296.166138,52.419338 291.152557,50.903488 286.419556,52.691856 
	C281.818573,54.430340 280.433838,58.254295 280.069580,62.503880 
	C279.667358,67.196526 279.910828,72.007339 284.542206,74.824875 
	C286.508545,76.021103 288.971375,76.401199 292.262238,77.505928 
	C292.562408,77.884422 293.672150,79.283844 295.496094,80.711945 
M308.522400,63.287926 
	C309.881378,61.831207 316.434021,61.278065 309.371368,58.312210 
	C308.819305,58.080383 308.737152,56.896999 308.244110,56.320442 
	C307.362793,55.289757 306.334686,54.384590 305.012146,53.074532 
	C303.708832,56.538574 302.169678,58.758183 302.209137,60.949364 
	C302.273346,64.514046 303.403656,68.054283 304.020416,71.615860 
	C304.554474,74.699753 308.142273,76.953308 310.640167,75.466125 
	C311.365204,75.034447 311.405579,73.452744 311.759796,72.398216 
	C306.298584,71.420593 308.859283,67.111320 308.522400,63.287926 
z"/>
<path fill="#F4F6F8" opacity="1.000000" stroke="none" 
	d="
M385.949219,78.388725 
	C385.937500,80.920418 385.206848,82.742218 381.542267,82.233734 
	C380.297607,82.534210 379.645325,82.852776 378.619598,83.091049 
	C377.504852,83.111732 376.763519,83.212685 375.679474,83.373856 
	C369.147888,83.323700 363.268829,82.361275 359.342560,77.467163 
	C361.124573,77.782661 362.395905,78.063698 363.854950,78.527504 
	C364.292267,78.681786 364.541870,78.653305 364.791504,78.624817 
	C364.597534,78.349892 364.403564,78.074966 364.015472,77.542259 
	C362.037598,75.818176 360.253845,74.351875 358.314270,72.649925 
	C357.892212,72.154190 357.626007,71.894096 357.291779,71.305496 
	C356.581146,69.575279 355.938507,68.173576 355.263245,66.383530 
	C354.928833,60.984432 356.868988,57.204849 361.570770,55.234169 
	C366.239288,53.277451 370.156799,55.200748 373.153595,58.609421 
	C375.286835,61.035831 376.600067,64.168678 378.418121,66.893578 
	C379.174988,68.027977 380.512482,69.885818 381.202087,69.728806 
	C382.757874,69.374542 384.952850,68.210182 385.300354,66.940826 
	C385.966522,64.507347 386.074341,61.632591 385.451660,59.185776 
	C383.054932,49.767841 376.532867,45.725113 365.242859,45.722397 
	C366.132294,45.271587 366.768951,45.099712 367.414062,44.969788 
	C375.905304,43.259735 383.133606,45.582748 387.724457,52.954540 
	C392.281555,60.272114 392.735321,67.950516 386.708160,75.118881 
	C386.066498,75.882034 386.183929,77.283424 385.949219,78.388725 
M375.742554,77.086601 
	C378.310028,69.934479 375.737427,61.900185 369.319580,58.071136 
	C367.750153,57.134796 365.565338,56.994663 363.657593,56.971371 
	C362.844269,56.961441 362.015839,58.191219 361.194275,58.857655 
	C361.809631,59.519825 362.299988,60.454330 363.059296,60.802864 
	C372.785461,65.267319 373.639862,66.709297 372.819946,78.075081 
	C373.651123,77.923424 374.418365,77.783417 375.742554,77.086601 
M365.948700,64.476479 
	C363.459076,63.315189 360.615692,61.244659 359.168854,65.365120 
	C358.798157,66.420761 360.274506,68.986183 361.494354,69.530022 
	C363.174316,70.279015 365.416992,69.765869 367.418579,69.793419 
	C367.119263,68.197037 366.819946,66.600655 365.948700,64.476479 
M368.461792,79.198898 
	C367.726379,79.198898 366.990967,79.198898 366.255524,79.198898 
	C366.255402,79.531769 366.255249,79.864639 366.255096,80.197510 
	C369.931335,80.197510 373.607544,80.197510 377.283783,80.197510 
	C377.280426,79.986237 377.277039,79.774971 377.273682,79.563698 
	C374.578583,79.563698 371.883484,79.563698 368.461792,79.198898 
z"/>
<path fill="#4C9DF7" opacity="1.000000" stroke="none" 
	d="
M250.159439,52.141373 
	C250.159653,56.417751 250.159653,60.215717 250.159653,64.438248 
	C242.858444,64.438248 235.843887,64.438248 228.407440,64.438248 
	C228.407440,59.254684 228.407440,53.912865 228.407440,48.194088 
	C235.357193,47.288364 242.350006,46.377026 250.159225,45.359291 
	C250.159225,47.555107 250.159225,49.609028 250.159439,52.141373 
z"/>
<path fill="#499BF7" opacity="1.000000" stroke="none" 
	d="
M249.947266,67.984306 
	C249.947266,73.896751 249.947266,79.809204 249.947266,86.323898 
	C242.489990,85.408501 235.491135,84.549370 228.477402,83.229263 
	C228.638016,82.426125 228.527710,82.180931 228.131607,82.032684 
	C228.081116,77.653503 228.030640,73.274330 228.242798,68.337685 
	C228.745468,67.596542 228.904449,67.358688 228.982391,67.066658 
	C235.354965,67.027092 241.727554,66.987526 248.664734,67.221085 
	C249.416824,67.733475 249.656143,67.896835 249.947266,67.984306 
z"/>
<path fill="#0D243D" opacity="1.000000" stroke="none" 
	d="
M152.156006,52.971054 
	C150.387878,49.396797 151.690399,45.791660 155.295166,44.282436 
	C161.792969,41.561962 168.589111,45.062214 168.755661,52.101189 
	C168.916412,58.894791 171.748962,64.016792 175.187698,69.467049 
	C177.244171,72.726479 177.373444,77.201836 177.893768,81.530518 
	C174.303223,82.631271 171.177887,83.294327 168.093094,84.110657 
	C167.866211,84.170700 167.932022,85.336838 167.638687,85.986069 
	C167.119247,85.930870 166.822845,85.930641 166.493698,85.566238 
	C166.556076,84.048363 166.651154,82.946960 166.842102,81.677094 
	C167.018600,81.248199 167.000610,80.994766 166.905975,80.402924 
	C167.819122,78.456741 169.669388,76.694099 169.431381,75.283867 
	C168.520752,69.887886 166.580856,64.834488 161.213409,61.792473 
	C164.108582,60.222618 164.020721,58.466473 162.085495,55.991745 
	C162.030060,55.044609 162.007721,54.503277 161.894623,53.676010 
	C161.395813,52.763424 160.987747,52.136784 160.426971,51.275650 
	C160.174835,51.976955 159.988968,52.493938 159.507919,53.037704 
	C158.492477,53.373310 157.772232,53.682133 157.006653,53.682182 
	C155.656387,49.694492 153.804886,52.542633 152.156006,52.971054 
z"/>
<path fill="#91A1B2" opacity="1.000000" stroke="none" 
	d="
M358.831909,77.432693 
	C363.268829,82.361275 369.147888,83.323700 375.681274,83.677231 
	C375.996918,84.521484 375.968079,85.122574 375.939240,85.723671 
	C375.802216,86.685600 375.998840,88.202698 375.473480,88.518387 
	C372.317017,90.415154 368.994812,92.036049 365.149872,93.518738 
	C364.256927,93.097389 363.942230,92.906647 363.742188,92.512299 
	C363.803406,91.602890 363.749939,90.897087 363.987762,89.992035 
	C364.162201,87.813950 364.045319,85.835121 363.928467,83.856285 
	C355.763275,78.958351 350.215485,72.625938 350.703369,62.252708 
	C351.179016,52.139088 358.504730,43.944916 369.388733,42.147770 
	C378.169830,40.697857 388.790161,47.320099 391.783752,56.112095 
	C394.744080,64.806396 392.799194,73.257736 386.318909,78.320938 
	C386.183929,77.283424 386.066498,75.882034 386.708160,75.118881 
	C392.735321,67.950516 392.281555,60.272114 387.724457,52.954540 
	C383.133606,45.582748 375.905304,43.259735 367.414062,44.969788 
	C366.768951,45.099712 366.132294,45.271587 365.249512,46.006912 
	C365.009125,46.969646 365.010925,47.349442 364.610107,47.802227 
	C361.219299,47.888672 358.144531,47.772587 357.992615,52.010086 
	C357.991760,51.990501 358.030914,51.992596 357.675201,51.899296 
	C356.875061,52.548191 356.430664,53.290386 355.987549,54.011292 
	C355.988861,53.990002 356.030640,53.981430 355.738800,53.995247 
	C355.290222,54.349117 355.133484,54.689175 354.980255,55.013069 
	C354.983765,54.996910 355.016785,54.996967 354.733582,55.127205 
	C354.296295,55.847008 354.142242,56.436569 353.989258,57.010124 
	C353.990295,56.994114 354.016602,56.975773 353.718750,57.207413 
	C351.527985,62.246094 351.208862,66.867851 355.007233,71.002800 
	C354.996674,71.001953 355.004456,70.982216 354.924896,71.322174 
	C355.214081,72.458817 355.582825,73.255516 356.219543,74.155579 
	C356.662476,74.181206 356.837463,74.103477 357.014465,74.005798 
	C357.016449,73.985855 356.978088,73.974213 356.904541,74.337418 
	C357.222412,75.313248 357.613800,75.925880 358.100098,76.643005 
	C358.422150,76.962715 358.634460,77.191109 358.831909,77.432693 
z"/>
<path fill="#509FF7" opacity="1.000000" stroke="none" 
	d="
M215.197296,64.873718 
	C210.345978,65.605782 208.941772,63.833996 209.107162,59.389759 
	C209.410736,51.231548 209.149139,51.195408 217.549957,49.734520 
	C220.114548,49.288540 222.712189,49.032661 225.697693,48.636204 
	C225.697693,54.257801 225.697693,59.304691 225.697693,64.874359 
	C222.231964,64.874359 218.949875,64.874359 215.197296,64.873718 
z"/>
<path fill="#4B9DF7" opacity="1.000000" stroke="none" 
	d="
M212.460464,81.714554 
	C211.103668,80.733955 209.463959,79.864586 209.378799,78.863052 
	C209.060608,75.120491 209.251587,71.334648 209.251587,66.940521 
	C214.249344,66.940521 218.823837,66.751678 223.372528,67.012756 
	C226.017303,67.164566 227.169373,73.819809 226.020523,80.303177 
	C225.402756,83.789474 223.010635,83.166908 220.717285,82.878189 
	C218.103317,82.549126 215.499466,82.139641 212.460464,81.714554 
z"/>
<path fill="#EABF35" opacity="1.000000" stroke="none" 
	d="
M152.194656,95.128990 
	C149.053101,94.720390 145.911530,94.311783 142.320145,93.582626 
	C140.686996,92.723572 139.503677,92.185081 138.662949,91.802490 
	C138.406387,88.631775 138.176559,85.791328 137.946732,82.950882 
	C137.946732,82.950882 138.000000,83.000000 138.303223,83.286491 
	C139.713608,82.694450 140.820755,81.815910 141.927917,80.937370 
	C141.927917,80.937370 141.993927,80.974564 142.147186,81.216034 
	C142.507233,81.395523 142.714020,81.333527 143.214355,81.088654 
	C144.656265,80.981773 145.804596,81.057777 147.044312,81.456635 
	C148.498657,83.828888 149.861649,85.878281 151.362701,88.249878 
	C151.732056,90.757721 151.963364,92.943359 152.194656,95.128990 
z"/>
<path fill="#E7BD35" opacity="1.000000" stroke="none" 
	d="
M167.861755,85.988739 
	C167.932022,85.336838 167.866211,84.170700 168.093094,84.110657 
	C171.177887,83.294327 174.303223,82.631271 177.765961,81.964928 
	C178.113342,81.999458 178.019531,81.998962 177.998291,82.290070 
	C178.318970,83.078041 178.660904,83.574913 179.002838,84.071793 
	C179.665619,85.369545 180.328415,86.667290 181.406601,88.778389 
	C177.561615,91.183418 173.645859,93.632706 168.981506,95.953217 
	C168.109192,92.545876 167.985474,89.267311 167.861755,85.988739 
z"/>
<path fill="#899AAC" opacity="1.000000" stroke="none" 
	d="
M363.527771,83.923462 
	C364.045319,85.835121 364.162201,87.813950 363.589966,89.969193 
	C358.063171,90.145607 353.225494,90.145607 348.387787,90.145607 
	C348.355743,90.720520 348.323700,91.295433 348.291626,91.870346 
	C350.961334,92.614487 353.631012,93.358635 356.300720,94.102776 
	C354.638153,94.133888 352.971130,94.098488 351.313995,94.210052 
	C347.941101,94.437126 345.889832,93.432686 345.950989,89.541267 
	C346.009247,85.834534 347.441010,83.978004 351.322968,84.083176 
	C355.253937,84.189667 359.192047,84.032379 363.527771,83.923462 
z"/>
<path fill="#0D243D" opacity="1.000000" stroke="none" 
	d="
M146.952942,81.133781 
	C145.804596,81.057777 144.656265,80.981773 143.151215,80.819916 
	C142.530273,80.488678 142.266052,80.243309 142.001816,79.997932 
	C141.993851,79.821892 141.985870,79.645851 142.346436,78.972717 
	C142.785904,77.269608 142.856842,76.063599 142.927765,74.857582 
	C143.706268,73.093842 144.475311,71.325867 145.265045,69.567177 
	C147.479599,64.635521 149.702713,59.707710 152.343750,54.429840 
	C153.506592,54.651619 154.248108,55.221935 154.749878,55.927837 
	C154.386124,57.283646 154.262085,58.503872 154.070694,60.126434 
	C153.960907,60.797394 153.918488,61.066025 153.737213,61.324821 
	C153.598343,61.314995 153.383041,61.138489 153.032227,61.312340 
	C152.548721,62.230331 152.416031,62.974472 152.271774,64.055664 
	C151.203979,66.605621 150.147766,68.818535 148.823868,71.245026 
	C148.489319,71.898102 148.422440,72.337616 148.369064,73.071297 
	C148.181915,73.917198 147.981277,74.468941 147.570984,75.203934 
	C147.434235,76.238121 147.507156,77.089066 147.711487,78.256393 
	C148.012955,78.996315 148.183029,79.419861 148.059753,79.987244 
	C147.495270,80.465324 147.224106,80.799553 146.952942,81.133781 
z"/>
<path fill="#243244" opacity="1.000000" stroke="none" 
	d="
M167.638687,85.986069 
	C167.985474,89.267311 168.109192,92.545876 168.602570,95.967033 
	C168.436615,96.315491 167.565170,96.839973 167.414246,96.680885 
	C163.036499,92.066582 157.946960,94.282104 152.600525,95.112350 
	C151.963364,92.943359 151.732056,90.757721 151.602539,87.974495 
	C151.844589,86.159744 151.984863,84.942581 152.440765,83.956909 
	C153.426483,87.121399 153.127579,90.973213 157.606277,90.879837 
	C161.277435,90.803291 165.506134,91.144943 166.526398,85.982712 
	C166.822845,85.930641 167.119247,85.930870 167.638687,85.986069 
z"/>
<path fill="#8D9DB0" opacity="1.000000" stroke="none" 
	d="
M392.741028,84.097504 
	C394.436279,85.089722 395.708893,86.080338 396.981476,87.070953 
	C394.630280,88.809494 392.279053,90.548027 389.755157,92.414261 
	C391.571869,92.614906 393.976501,92.880478 396.381134,93.146049 
	C396.362061,93.377968 396.342987,93.609879 396.323883,93.841797 
	C393.344208,93.841797 390.364502,93.841797 387.300293,93.841797 
	C385.615265,86.838646 390.862091,88.175774 394.572449,86.722672 
	C392.146210,86.391220 389.719971,86.059761 387.293732,85.728310 
	C387.253174,85.359123 387.212616,84.989937 387.172028,84.620758 
	C388.887451,84.445801 390.602905,84.270851 392.741028,84.097504 
z"/>
<path fill="#899AAC" opacity="1.000000" stroke="none" 
	d="
M376.360046,85.868103 
	C375.968079,85.122574 375.996918,84.521484 376.023987,83.617020 
	C376.763519,83.212685 377.504852,83.111732 378.659332,83.362778 
	C379.931641,83.874100 380.790802,84.033424 381.649963,84.192749 
	C387.388092,83.903374 386.299438,88.557701 385.714600,91.157166 
	C384.506683,96.526077 379.943817,93.455086 376.628723,93.291389 
	C378.995422,92.930267 381.362152,92.569145 383.728851,92.208023 
	C383.750000,91.822853 383.771149,91.437675 383.792297,91.052498 
	C382.051544,90.570274 380.310760,90.088043 378.570007,89.605820 
	C378.527283,89.297867 378.484528,88.989922 378.441803,88.681969 
	C380.144348,88.275948 381.846863,87.869934 383.549408,87.463913 
	C383.577606,87.148949 383.605804,86.833984 383.634003,86.519020 
	C381.349609,86.350189 379.065247,86.181358 376.360046,85.868103 
z"/>
<path fill="#E4E8EC" opacity="1.000000" stroke="none" 
	d="
M356.402954,94.104431 
	C353.631012,93.358635 350.961334,92.614487 348.291626,91.870346 
	C348.323700,91.295433 348.355743,90.720520 348.387787,90.145607 
	C353.225494,90.145607 358.063171,90.145607 363.298676,90.168442 
	C363.749939,90.897087 363.803406,91.602890 363.349487,92.573044 
	C360.797150,93.249947 358.752197,93.662514 356.707275,94.075073 
	C356.707275,94.075073 356.505157,94.106087 356.402954,94.104431 
z"/>
<path fill="#16273F" opacity="1.000000" stroke="none" 
	d="
M71.763550,157.564484 
	C67.301445,157.965897 69.730606,153.919540 68.363251,152.063232 
	C68.180099,151.814590 70.032516,150.066544 71.306274,149.002808 
	C71.733528,151.702576 71.796806,154.412369 71.763550,157.564484 
z"/>
<path fill="#373D4A" opacity="1.000000" stroke="none" 
	d="
M137.580826,83.132362 
	C138.176559,85.791328 138.406387,88.631775 138.662949,91.802490 
	C139.503677,92.185081 140.686996,92.723572 142.018341,93.590584 
	C137.901901,94.301651 135.413605,93.169365 136.869934,88.159523 
	C137.311859,86.639336 137.117722,84.934242 137.580826,83.132362 
z"/>
<path fill="#192C42" opacity="1.000000" stroke="none" 
	d="
M154.989624,55.792252 
	C154.248108,55.221935 153.506592,54.651619 152.476868,54.046967 
	C152.150330,53.840076 152.111969,53.667522 152.114807,53.233009 
	C153.804886,52.542633 155.656387,49.694492 157.000397,53.982079 
	C157.025955,54.990017 157.012451,55.389290 156.664536,55.816963 
	C155.883286,55.827663 155.436462,55.809956 154.989624,55.792252 
z"/>
<path fill="#16273F" opacity="1.000000" stroke="none" 
	d="
M71.764343,162.636200 
	C70.828445,162.540131 69.988663,162.073364 69.148880,161.606583 
	C69.761734,161.076248 70.374588,160.545898 71.327377,160.004211 
	C71.731689,160.750397 71.796082,161.507935 71.764343,162.636200 
z"/>
<path fill="#899AAC" opacity="1.000000" stroke="none" 
	d="
M357.174530,94.120911 
	C358.752197,93.662514 360.797150,93.249947 363.234802,92.776642 
	C363.942230,92.906647 364.256927,93.097389 364.741302,93.503143 
	C362.487915,93.867683 360.064850,94.017212 357.174530,94.120911 
z"/>
<path fill="#91A1B2" opacity="1.000000" stroke="none" 
	d="
M381.634766,83.863297 
	C380.790802,84.033424 379.931641,83.874100 379.032745,83.443054 
	C379.645325,82.852776 380.297607,82.534210 381.216980,82.223610 
	C381.529205,82.665657 381.574402,83.099747 381.634766,83.863297 
z"/>
<path fill="#373D4A" opacity="1.000000" stroke="none" 
	d="
M141.586273,80.919037 
	C140.820755,81.815910 139.713608,82.694450 138.275452,83.263199 
	C139.044525,82.269180 140.144592,81.584946 141.586273,80.919037 
z"/>
<path fill="#373D4A" opacity="1.000000" stroke="none" 
	d="
M142.706696,75.142654 
	C142.856842,76.063599 142.785904,77.269608 142.457855,78.733009 
	C142.295670,77.802841 142.390640,76.615288 142.706696,75.142654 
z"/>
<path fill="#0B2540" opacity="1.000000" stroke="none" 
	d="
M268.371094,215.905975 
	C268.880463,215.576721 269.740326,215.311523 270.955688,215.079315 
	C270.447998,215.398209 269.584778,215.684113 268.371094,215.905975 
z"/>
<path fill="#0B2540" opacity="1.000000" stroke="none" 
	d="
M284.323730,212.027863 
	C284.755310,211.650864 285.508728,211.315857 286.592102,210.979202 
	C286.163208,211.341660 285.404388,211.705780 284.323730,212.027863 
z"/>
<path fill="#0B2540" opacity="1.000000" stroke="none" 
	d="
M245.150574,214.206161 
	C245.468506,214.083481 245.978760,214.151321 246.692291,214.380341 
	C246.378021,214.493256 245.860458,214.444977 245.150574,214.206161 
z"/>
<path fill="#0B2540" opacity="1.000000" stroke="none" 
	d="
M276.349884,214.608444 
	C276.562134,214.356491 277.034210,214.177292 277.766754,214.005463 
	C277.554718,214.235611 277.082214,214.458405 276.349884,214.608444 
z"/>
<path fill="#0B2540" opacity="1.000000" stroke="none" 
	d="
M319.302917,189.834457 
	C319.486328,189.516388 319.944977,189.261276 320.676666,188.996643 
	C320.492523,189.290558 320.035370,189.593994 319.302917,189.834457 
z"/>
<path fill="#0B2540" opacity="1.000000" stroke="none" 
	d="
M312.316467,184.692657 
	C312.566101,184.746521 313.159790,184.729477 313.838806,184.970047 
	C313.502960,185.025711 313.081726,184.823730 312.316467,184.692657 
z"/>
<path fill="#0B2540" opacity="1.000000" stroke="none" 
	d="
M219.266388,238.814621 
	C219.392471,238.512924 219.754791,238.265686 220.345337,238.002075 
	C220.216599,238.280167 219.859604,238.574631 219.266388,238.814621 
z"/>
<path fill="#0B2540" opacity="1.000000" stroke="none" 
	d="
M367.308624,168.879639 
	C367.492645,168.577652 367.965973,168.300186 368.726562,168.017090 
	C368.541840,168.309036 368.069885,168.606598 367.308624,168.879639 
z"/>
<path fill="#0D243D" opacity="1.000000" stroke="none" 
	d="
M179.059341,83.721748 
	C178.660904,83.574913 178.318970,83.078041 177.998108,82.243156 
	C178.384750,82.394005 178.750305,82.882858 179.059341,83.721748 
z"/>
<path fill="#3792F5" opacity="1.000000" stroke="none" 
	d="
M228.094727,82.264946 
	C228.527710,82.180931 228.638016,82.426125 228.323639,82.859192 
	C228.184769,82.950096 228.057846,82.497208 228.094727,82.264946 
z"/>
<path fill="#0B2540" opacity="1.000000" stroke="none" 
	d="
M249.248734,215.003876 
	C249.285553,214.810593 249.561401,214.729431 249.917114,214.812225 
	C249.827225,215.022766 249.657486,215.069397 249.248734,215.003876 
z"/>
<path fill="#0B2540" opacity="1.000000" stroke="none" 
	d="
M273.256531,215.037262 
	C273.264923,214.837784 273.526978,214.708649 273.887451,214.730743 
	C273.827301,214.957199 273.668732,215.032394 273.256531,215.037262 
z"/>
<path fill="#0B2540" opacity="1.000000" stroke="none" 
	d="
M254.256897,215.859512 
	C254.218369,215.406799 254.479599,215.326996 254.890930,215.677032 
	C254.814896,215.861542 254.653427,215.903381 254.256897,215.859512 
z"/>
<path fill="#3792F5" opacity="1.000000" stroke="none" 
	d="
M249.945068,67.722038 
	C249.656143,67.896835 249.416824,67.733475 249.129608,67.298073 
	C249.334198,67.221214 249.638519,67.340492 249.945068,67.722038 
z"/>
<path fill="#0B2540" opacity="1.000000" stroke="none" 
	d="
M215.998962,238.243530 
	C216.171432,238.048874 216.432266,238.136292 216.802048,238.467163 
	C216.939987,238.624161 216.490311,238.700134 216.490311,238.700134 
	C216.490311,238.700134 216.116302,238.439163 215.998962,238.243530 
z"/>
<path fill="#3792F5" opacity="1.000000" stroke="none" 
	d="
M228.722382,67.064293 
	C228.904449,67.358688 228.745468,67.596542 228.309418,67.874924 
	C228.229706,67.667061 228.346039,67.364494 228.722382,67.064293 
z"/>
<path fill="#373D4A" opacity="1.000000" stroke="none" 
	d="
M141.858994,80.219391 
	C142.266052,80.243309 142.530273,80.488678 142.857651,81.002792 
	C142.714020,81.333527 142.507233,81.395523 142.124191,81.185860 
	C141.870667,80.756416 141.793427,80.598633 141.858994,80.219391 
z"/>
<path fill="#0B2540" opacity="1.000000" stroke="none" 
	d="
M374.299561,165.814209 
	C374.302185,165.593918 374.582275,165.383911 375.130035,165.153839 
	C375.124146,165.364029 374.850586,165.594269 374.299561,165.814209 
z"/>
<path fill="#38AF4A" opacity="1.000000" stroke="none" 
	d="
M271.263977,85.949730 
	C271.300201,85.776909 271.567963,85.700180 271.911407,85.785492 
	C271.823273,85.980293 271.659393,86.013054 271.263977,85.949730 
z"/>
<path fill="#0B2540" opacity="1.000000" stroke="none" 
	d="
M340.011597,120.727921 
	C339.906891,120.664467 339.556091,120.390175 339.126221,119.776382 
	C339.286621,119.796944 339.526062,120.157013 340.011597,120.727921 
z"/>
<path fill="#0B2540" opacity="1.000000" stroke="none" 
	d="
M341.771667,121.828590 
	C341.563263,121.953690 341.364166,121.814133 341.119324,121.453590 
	C341.352051,121.223122 341.587830,121.333565 341.771667,121.828590 
z"/>
<path fill="#0B2540" opacity="1.000000" stroke="none" 
	d="
M344.738342,124.157455 
	C344.980438,124.194893 344.692291,124.564224 344.692291,124.564224 
	C344.692291,124.564224 344.251373,124.564041 344.149414,124.440323 
	C344.047455,124.316597 344.496246,124.120010 344.738342,124.157455 
z"/>
<path fill="#0B2540" opacity="1.000000" stroke="none" 
	d="
M316.043518,189.258286 
	C316.267792,189.059570 316.516541,189.182297 316.845459,189.559784 
	C316.966003,189.732788 316.478729,189.828690 316.478729,189.828690 
	C316.478729,189.828690 316.108276,189.497971 316.043518,189.258286 
z"/>
<path fill="#0B2540" opacity="1.000000" stroke="none" 
	d="
M364.036743,128.661469 
	C363.774963,128.643143 363.511841,128.281540 363.260925,127.572144 
	C363.527222,127.588966 363.781311,127.953575 364.036743,128.661469 
z"/>
<path fill="#0B2540" opacity="1.000000" stroke="none" 
	d="
M372.757996,149.705612 
	C372.547791,149.700531 372.351532,149.431290 372.137573,148.907318 
	C372.337250,148.915558 372.554596,149.178513 372.757996,149.705612 
z"/>
<path fill="#0B2540" opacity="1.000000" stroke="none" 
	d="
M374.871765,154.701294 
	C374.624908,154.711395 374.406036,154.438110 374.158875,153.898376 
	C374.386993,153.893921 374.643402,154.155914 374.871765,154.701294 
z"/>
<path fill="#479BF5" opacity="1.000000" stroke="none" 
	d="
M309.231934,177.944168 
	C302.515503,193.111938 292.815826,205.054611 275.000092,209.037415 
	C273.734009,209.355301 273.158661,209.605789 272.583282,209.856262 
	C265.753937,209.864319 258.924561,209.872391 251.428314,209.644043 
	C249.855682,209.333069 248.949951,209.258484 248.044235,209.183899 
	C247.871262,209.120346 247.698288,209.056808 247.060837,208.831329 
	C246.106812,208.603134 245.617264,208.536896 245.127716,208.470673 
	C242.966095,207.724274 240.804489,206.977890 238.524094,206.190475 
	C231.497559,215.029602 224.582886,223.728027 217.450546,232.700256 
	C214.311584,230.760956 211.537689,229.047195 208.653580,227.265350 
	C214.318619,221.113876 219.693283,215.277710 225.067963,209.441544 
	C224.568619,208.873093 224.069275,208.304642 223.569931,207.736191 
	C216.681107,212.513535 209.792267,217.290878 202.268768,222.508347 
	C199.227844,217.848450 196.495972,213.662140 193.777130,209.495789 
	C201.884552,207.431351 209.509598,206.326263 216.427521,203.494019 
	C223.408554,200.635971 229.650314,195.997070 236.292770,192.275513 
	C239.110458,190.696854 242.195160,189.595566 245.017731,188.024445 
	C246.362534,187.275864 247.378159,185.935913 248.542908,184.863846 
	C247.006836,184.174072 245.431442,182.812271 243.940857,182.899551 
	C230.565918,183.682556 218.050705,181.898514 207.943115,172.004318 
	C207.469421,171.540619 207.015396,171.048019 206.617371,170.519791 
	C206.438431,170.282333 206.420197,169.923767 206.118027,168.917389 
	C209.032822,169.315750 211.683090,169.994781 214.311874,169.919876 
	C215.920105,169.874039 217.495346,168.670654 219.085419,167.987122 
	C217.660965,166.983795 216.354324,165.391876 214.791641,165.079071 
	C208.048813,163.729446 201.392822,162.097855 196.360184,157.152832 
	C193.021637,153.872421 190.346603,149.916748 187.374542,146.263367 
	C187.673615,145.970520 187.972672,145.677689 188.271729,145.384842 
	C193.099518,146.719818 197.880173,148.297195 202.782196,149.250168 
	C204.366592,149.558182 206.269760,148.226486 208.027100,147.644867 
	C206.623260,146.426224 205.405334,144.749863 203.775406,144.087860 
	C200.737808,142.854126 197.395523,142.392822 194.295105,141.287399 
	C184.708557,137.869446 180.083878,130.474792 180.537567,119.171158 
	C195.907013,123.268051 211.252045,127.127274 226.453369,131.487473 
	C237.566727,134.675110 248.704697,137.987122 259.421814,142.269455 
	C266.151367,144.958466 272.045837,149.561081 275.562714,156.510345 
	C276.096252,157.564560 278.273529,157.786880 279.690491,158.393997 
	C280.051239,156.833817 280.896637,155.190399 280.646667,153.735138 
	C280.352325,152.021683 279.108704,150.471313 278.127380,148.559341 
	C286.722076,140.362961 291.134979,130.011765 294.260101,118.774918 
	C296.864227,109.411285 304.977631,104.583702 315.461487,104.970200 
	C324.451538,105.301613 330.758881,111.187584 333.535706,122.434601 
	C333.286774,123.291069 333.136261,123.641716 332.985748,123.992355 
	C332.587677,124.283936 331.983856,124.489929 331.821747,124.879662 
	C328.095093,133.838379 318.947906,134.893890 311.690857,138.655502 
	C308.603668,140.255722 305.320251,141.485519 302.096283,142.811447 
	C298.389557,144.335938 297.073761,146.415085 298.960297,150.532761 
	C302.551910,158.372086 305.654388,166.435516 309.099335,175.099304 
	C309.236481,176.509857 309.234192,177.227005 309.231934,177.944168 
M319.745422,123.559395 
	C320.411285,121.996681 322.008698,119.999260 321.528931,118.971184 
	C320.772980,117.351219 318.265503,115.119080 317.142242,115.434547 
	C315.449707,115.909912 313.218475,118.323227 313.165100,119.975716 
	C313.054321,123.405502 315.685211,124.610733 319.745422,123.559395 
z"/>
<path fill="#F8F8F9" opacity="1.000000" stroke="none" 
	d="
M326.174866,154.584900 
	C326.146149,153.919067 326.117462,153.253235 325.961273,152.059052 
	C325.626038,151.199051 325.362396,151.146240 325.042938,151.372284 
	C322.287292,150.572418 319.531677,149.772552 316.213196,148.766052 
	C315.115082,148.475800 314.579803,148.392197 314.044495,148.308594 
	C312.670380,147.742004 311.296265,147.175400 309.241821,146.328262 
	C316.394379,143.121994 323.049438,140.095261 329.741394,137.152359 
	C335.326019,134.696411 340.926483,132.270203 346.589386,130.004395 
	C347.540436,129.623871 348.844482,130.125626 349.766235,130.783890 
	C349.419556,131.891434 349.292084,132.434814 349.164642,132.978180 
	C347.955475,135.799698 346.453247,138.541519 345.655548,141.474930 
	C345.229675,143.040924 346.020142,144.937698 346.686554,147.175812 
	C347.535248,147.492783 347.959015,147.319122 348.382751,147.145447 
	C349.921173,143.377533 351.459595,139.609634 353.281189,135.309097 
	C353.677734,134.188644 353.791107,133.600845 353.904480,133.013031 
	C354.731110,130.921463 355.557739,128.829910 356.530518,126.368507 
	C356.988312,127.205307 357.351227,127.868690 357.888702,129.071732 
	C358.365387,130.097946 358.667511,130.584503 358.969635,131.071075 
	C361.533722,137.519104 364.097778,143.967133 366.842316,151.015869 
	C367.338196,152.102341 367.653625,152.588104 367.969055,153.073868 
	C368.830627,155.545197 369.692200,158.016541 370.670044,160.821442 
	C357.521912,166.593643 344.391022,172.358139 331.260284,178.122971 
	C327.938446,179.581360 324.661041,181.160065 321.263184,182.411911 
	C320.464722,182.706085 319.260223,181.898209 318.068481,180.995758 
	C317.605133,179.910385 317.315796,179.426575 317.026459,178.942764 
	C313.313538,169.784866 309.600616,160.626968 305.415985,150.305618 
	C311.923920,152.442535 317.479675,154.266800 323.639832,156.357941 
	C325.026123,156.669754 325.807983,156.714691 326.589813,156.759613 
	C326.451477,156.034714 326.313171,155.309799 326.174866,154.584900 
M328.088867,146.012436 
	C328.597321,148.202316 329.061432,150.403870 329.633240,152.577087 
	C329.913177,153.641037 330.477600,154.629318 330.767395,155.691635 
	C331.726501,159.207245 331.991547,163.079407 333.671692,166.195328 
	C336.892700,172.168900 340.285065,165.728745 343.678955,165.668625 
	C344.717377,165.650238 345.685150,164.489334 346.778198,164.178299 
	C350.179657,163.210495 351.042450,161.334625 349.221527,158.260666 
	C347.132660,154.734406 345.237915,151.077805 342.933838,147.699509 
	C341.272980,145.264297 339.485474,142.195999 337.027924,141.196548 
	C333.559662,139.786072 330.241486,141.690826 328.088867,146.012436 
z"/>
<path fill="#213B52" opacity="1.000000" stroke="none" 
	d="
M187.728973,203.092651 
	C180.422668,204.543091 173.220688,206.321564 166.337372,211.037415 
	C164.841095,210.902939 164.182739,210.810196 163.770966,210.458023 
	C171.567825,207.003662 172.403900,205.377655 169.782913,197.999893 
	C168.877243,195.450562 168.535706,193.453690 171.790970,192.617889 
	C176.197830,191.486404 176.543152,188.669159 174.937820,185.041199 
	C176.305511,186.356369 177.673203,187.671539 179.396957,189.329117 
	C184.836670,188.563919 188.495865,193.624191 187.788574,202.703873 
	C187.694290,203.136780 187.706573,203.094269 187.728973,203.092651 
M183.597885,196.294876 
	C183.881348,195.659134 184.164810,195.023376 184.448257,194.387634 
	C183.858231,194.156128 183.268219,193.924622 182.678192,193.693115 
	C182.423752,194.736801 182.169327,195.780487 181.455765,196.938446 
	C181.455765,196.938446 180.990158,197.022446 180.975159,196.229004 
	C180.893143,194.692093 180.811111,193.155167 180.729080,191.618256 
	C180.231430,191.461838 179.733780,191.305435 179.236115,191.149017 
	C178.494812,192.777588 177.753494,194.406158 176.759460,196.621384 
	C175.400635,195.866364 174.041824,195.111328 172.682999,194.356308 
	C172.600555,195.960739 172.210587,197.626190 172.513809,199.154068 
	C172.889175,201.045532 173.839539,202.822876 174.586151,204.765762 
	C176.528931,204.106277 178.228287,203.529434 180.614822,202.898895 
	C181.147400,201.661011 181.679962,200.423126 182.215546,199.178253 
	C183.551834,199.412949 184.906723,199.650925 186.261627,199.888885 
	C186.423737,199.535217 186.585846,199.181534 186.747955,198.827850 
	C185.581390,198.128799 184.414825,197.429749 183.597885,196.294876 
z"/>
<path fill="#0B2540" opacity="1.000000" stroke="none" 
	d="
M325.986237,154.906754 
	C326.313171,155.309799 326.451477,156.034714 326.589813,156.759613 
	C325.807983,156.714691 325.026123,156.669754 324.017395,156.353455 
	C324.459564,155.797592 325.128601,155.513107 325.986237,154.906754 
z"/>
<path fill="#0B2540" opacity="1.000000" stroke="none" 
	d="
M309.435516,177.755997 
	C309.234192,177.227005 309.236481,176.509857 309.268982,175.434921 
	C309.412506,175.907379 309.525818,176.737595 309.435516,177.755997 
z"/>
<path fill="#0B2540" opacity="1.000000" stroke="none" 
	d="
M248.290863,209.420074 
	C248.949951,209.258484 249.855682,209.333069 251.005035,209.656296 
	C250.344955,209.822052 249.441238,209.739151 248.290863,209.420074 
z"/>
<path fill="#0B2540" opacity="1.000000" stroke="none" 
	d="
M272.908386,209.888275 
	C273.158661,209.605789 273.734009,209.355301 274.630920,209.163666 
	C274.379486,209.455093 273.806519,209.687683 272.908386,209.888275 
z"/>
<path fill="#0B2540" opacity="1.000000" stroke="none" 
	d="
M317.026855,179.233429 
	C317.315796,179.426575 317.605133,179.910385 317.866333,180.685883 
	C317.567871,180.493057 317.297577,180.008575 317.026855,179.233429 
z"/>
<path fill="#0B2540" opacity="1.000000" stroke="none" 
	d="
M245.322083,208.622864 
	C245.617264,208.536896 246.106812,208.603134 246.784546,208.839447 
	C246.487305,208.931351 246.001877,208.853210 245.322083,208.622864 
z"/>
<path fill="#0B2540" opacity="1.000000" stroke="none" 
	d="
M353.670410,133.201996 
	C353.791107,133.600845 353.677734,134.188644 353.306885,134.945374 
	C353.178345,134.539841 353.307343,133.965393 353.670410,133.201996 
z"/>
<path fill="#0B2540" opacity="1.000000" stroke="none" 
	d="
M367.965576,152.774323 
	C367.653625,152.588104 367.338196,152.102341 367.051025,151.313812 
	C367.373566,151.498962 367.667816,151.986877 367.965576,152.774323 
z"/>
<path fill="#0B2540" opacity="1.000000" stroke="none" 
	d="
M314.236633,148.499115 
	C314.579803,148.392197 315.115082,148.475800 315.825134,148.778870 
	C315.476196,148.895447 314.952484,148.792542 314.236633,148.499115 
z"/>
<path fill="#0B2540" opacity="1.000000" stroke="none" 
	d="
M349.383057,132.795074 
	C349.292084,132.434814 349.419556,131.891434 349.768677,131.163818 
	C349.860748,131.523712 349.731110,132.067856 349.383057,132.795074 
z"/>
<path fill="#0B2540" opacity="1.000000" stroke="none" 
	d="
M358.967834,130.774536 
	C358.667511,130.584503 358.365387,130.097946 358.087097,129.313141 
	C358.395966,129.502594 358.681000,129.990295 358.967834,130.774536 
z"/>
<path fill="#0B2540" opacity="1.000000" stroke="none" 
	d="
M333.234070,123.829849 
	C333.136261,123.641716 333.286774,123.291069 333.660645,122.755013 
	C333.750122,122.935509 333.616241,123.301414 333.234070,123.829849 
z"/>
<path fill="#0B2540" opacity="1.000000" stroke="none" 
	d="
M348.019287,147.103912 
	C347.959015,147.319122 347.535248,147.492783 347.018066,147.350662 
	C347.168365,147.044037 347.412079,147.053192 348.019287,147.103912 
z"/>
<path fill="#0B2540" opacity="1.000000" stroke="none" 
	d="
M325.131927,151.514404 
	C325.362396,151.146240 325.626038,151.199051 325.815186,151.758072 
	C325.570923,151.934921 325.379028,151.825287 325.131927,151.514404 
z"/>
<path fill="#469AF0" opacity="1.000000" stroke="none" 
	d="
M174.956635,185.025665 
	C176.543152,188.669159 176.197830,191.486404 171.790970,192.617889 
	C168.535706,193.453690 168.877243,195.450562 169.782913,197.999893 
	C172.403900,205.377655 171.567825,207.003662 163.412689,210.564392 
	C160.646301,211.268372 158.431778,212.075623 156.335190,211.838806 
	C152.879776,211.448517 151.785660,212.873352 151.934158,215.972061 
	C151.934158,215.972061 151.995911,215.998306 151.591461,215.839447 
	C146.707855,218.826416 146.341721,212.049698 142.947098,212.144775 
	C147.002472,210.153671 151.057846,208.162582 155.133270,206.161636 
	C150.209595,202.523529 146.105225,199.490784 142.000839,196.458054 
	C142.000839,196.458054 141.983810,196.500565 142.365051,196.362274 
	C144.169830,196.065857 145.593353,195.907730 147.009247,195.750443 
	C144.434830,193.609619 141.914825,191.514038 139.394806,189.418442 
	C139.823410,188.750198 140.252014,188.081955 140.680618,187.413712 
	C148.108200,190.212952 155.535767,193.012177 163.051468,195.844620 
	C164.495712,192.718338 166.269562,188.878586 168.043396,185.038834 
	C168.043411,185.038834 168.002808,184.998291 168.396912,185.037338 
	C169.253586,184.872437 169.716141,184.668472 170.568726,184.550964 
	C172.291870,184.770737 173.624969,184.904083 174.958069,185.037430 
	C174.958069,185.037430 174.975464,185.010117 174.956635,185.025665 
M148.889130,213.490936 
	C148.666946,213.405869 148.444778,213.320786 148.222595,213.235703 
	C148.289597,213.469803 148.356598,213.703903 148.889130,213.490936 
z"/>
<path fill="#0C314E" opacity="1.000000" stroke="none" 
	d="
M167.691711,184.934235 
	C166.269562,188.878586 164.495712,192.718338 163.051468,195.844620 
	C155.535767,193.012177 148.108200,190.212952 140.680618,187.413712 
	C140.252014,188.081955 139.823410,188.750198 139.394806,189.418442 
	C141.914825,191.514038 144.434830,193.609619 147.009247,195.750443 
	C145.593353,195.907730 144.169830,196.065857 142.386963,196.368958 
	C137.381378,194.165558 138.041718,189.665787 136.629578,184.594818 
	C145.772812,187.389648 153.742416,189.825714 161.864120,192.308289 
	C163.541061,190.018021 165.440552,187.423813 167.691711,184.934235 
z"/>
<path fill="#0C314E" opacity="1.000000" stroke="none" 
	d="
M141.906418,196.849854 
	C146.105225,199.490784 150.209595,202.523529 155.133270,206.161636 
	C151.057846,208.162582 147.002472,210.153671 142.947098,212.144775 
	C146.341721,212.049698 146.707855,218.826416 151.573166,215.811310 
	C150.975174,220.286530 148.652634,221.147339 145.436661,218.084213 
	C143.103363,215.861832 141.176346,213.212921 138.656815,210.274429 
	C143.456802,208.925186 146.777420,207.991776 149.879333,207.119843 
	C146.864471,203.428253 144.338226,200.334961 141.906418,196.849854 
z"/>
<path fill="#0C314E" opacity="1.000000" stroke="none" 
	d="
M152.270966,215.925980 
	C151.785660,212.873352 152.879776,211.448517 156.335190,211.838806 
	C158.431778,212.075623 160.646301,211.268372 163.166107,210.823807 
	C164.182739,210.810196 164.841095,210.902939 165.999435,211.036057 
	C163.447037,211.995346 160.373856,212.851868 157.350616,213.858307 
	C155.725449,214.399338 154.185928,215.197678 152.270966,215.925980 
z"/>
<path fill="#0C314E" opacity="1.000000" stroke="none" 
	d="
M170.178696,184.464523 
	C169.716141,184.668472 169.253586,184.872437 168.411255,185.061829 
	C169.109497,181.421432 171.683105,182.925858 173.849121,183.637390 
	C172.568481,184.120499 171.373581,184.292511 170.178696,184.464523 
z"/>
<path fill="#213B52" opacity="1.000000" stroke="none" 
	d="
M170.568726,184.550964 
	C171.373581,184.292511 172.568481,184.120499 174.156067,183.923462 
	C174.863815,184.032074 175.064056,184.264725 175.053772,184.816925 
	C173.624969,184.904083 172.291870,184.770737 170.568726,184.550964 
z"/>
<path fill="#F3FAF4" opacity="1.000000" stroke="none" 
	d="
M295.138977,80.697601 
	C293.672150,79.283844 292.562408,77.884422 292.262238,77.505928 
	C288.971375,76.401199 286.508545,76.021103 284.542206,74.824875 
	C279.910828,72.007339 279.667358,67.196526 280.069580,62.503880 
	C280.433838,58.254295 281.818573,54.430340 286.419556,52.691856 
	C291.152557,50.903488 296.166138,52.419338 298.236481,56.952946 
	C300.469421,61.842590 300.641418,67.018906 297.789429,71.723663 
	C296.462311,73.912895 295.560608,75.569389 297.138458,77.966965 
	C297.393188,78.354027 296.082947,79.771034 295.138977,80.697601 
M294.952148,67.035492 
	C294.918640,63.335594 296.335815,59.053680 292.241089,56.714626 
	C290.885071,55.939995 287.276276,56.277035 286.925293,57.079853 
	C285.613495,60.080128 284.595581,63.511055 284.732910,66.726410 
	C284.811951,68.576500 286.980591,71.209869 288.814575,71.915283 
	C291.836761,73.077713 294.200623,71.300705 294.952148,67.035492 
z"/>
<path fill="#F9FCF9" opacity="1.000000" stroke="none" 
	d="
M308.416534,63.690666 
	C308.859283,67.111320 306.298584,71.420593 311.759827,72.398224 
	C311.405579,73.452744 311.365204,75.034447 310.640167,75.466125 
	C308.142273,76.953308 304.554474,74.699753 304.020416,71.615860 
	C303.403656,68.054283 302.273346,64.514046 302.209137,60.949364 
	C302.169678,58.758183 303.708832,56.538574 305.012146,53.074532 
	C306.334686,54.384590 307.362793,55.289757 308.244110,56.320442 
	C308.737152,56.896999 308.819305,58.080383 309.371368,58.312210 
	C316.434021,61.278065 309.881378,61.831207 308.416534,63.690666 
z"/>
<path fill="#8C9CAF" opacity="1.000000" stroke="none" 
	d="
M365.012695,47.729233 
	C365.010925,47.349442 365.009125,46.969646 365.000671,46.305340 
	C376.532867,45.725113 383.054932,49.767841 385.451660,59.185776 
	C386.074341,61.632591 385.966522,64.507347 385.300354,66.940826 
	C384.952850,68.210182 382.757874,69.374542 381.202087,69.728806 
	C380.512482,69.885818 379.174988,68.027977 378.418121,66.893578 
	C376.600067,64.168678 375.286835,61.035831 373.153595,58.609421 
	C370.156799,55.200748 366.239288,53.277451 361.570770,55.234169 
	C356.868988,57.204849 354.928833,60.984432 355.108459,66.494713 
	C354.986389,66.994225 354.673737,67.212074 354.465942,66.925049 
	C354.177643,63.417278 354.097137,60.196526 354.016602,56.975773 
	C354.016602,56.975773 353.990295,56.994114 354.280762,56.886612 
	C354.719757,56.185062 354.868286,55.591015 355.016785,54.996967 
	C355.016785,54.996967 354.983765,54.996910 355.259949,54.973900 
	C355.700958,54.627743 355.865814,54.304592 356.030640,53.981438 
	C356.030640,53.981430 355.988861,53.990002 356.279053,53.925072 
	C357.056488,53.237625 357.543701,52.615105 358.030914,51.992592 
	C358.030914,51.992596 357.991760,51.990501 358.371216,51.959030 
	C363.543793,49.185497 368.674561,48.979034 372.735565,52.509277 
	C376.430786,55.721581 379.051056,60.170486 381.999390,63.890388 
	C382.940369,55.885128 375.531464,48.669506 365.012695,47.729233 
z"/>
<path fill="#8D9DAF" opacity="1.000000" stroke="none" 
	d="
M375.464111,77.365005 
	C374.418365,77.783417 373.651123,77.923424 372.819946,78.075081 
	C373.639862,66.709297 372.785461,65.267319 363.059296,60.802864 
	C362.299988,60.454330 361.809631,59.519825 361.194275,58.857647 
	C362.015839,58.191219 362.844269,56.961441 363.657593,56.971371 
	C365.565338,56.994663 367.750153,57.134796 369.319580,58.071136 
	C375.737427,61.900185 378.310028,69.934479 375.464111,77.365005 
z"/>
<path fill="#8999AC" opacity="1.000000" stroke="none" 
	d="
M366.234650,64.740379 
	C366.819946,66.600655 367.119263,68.197037 367.418579,69.793419 
	C365.416992,69.765869 363.174316,70.279015 361.494354,69.530022 
	C360.274506,68.986183 358.798157,66.420761 359.168854,65.365120 
	C360.615692,61.244659 363.459076,63.315189 366.234650,64.740379 
z"/>
<path fill="#96A6B6" opacity="1.000000" stroke="none" 
	d="
M359.342560,77.467163 
	C358.634460,77.191109 358.422150,76.962715 358.235199,76.267410 
	C357.842987,75.182945 357.410553,74.578575 356.978088,73.974213 
	C356.978088,73.974213 357.016449,73.985855 357.031860,73.747803 
	C356.997711,73.344643 356.948090,73.179527 356.999634,73.027939 
	C357.100800,73.041466 357.303345,73.016266 357.594849,72.981758 
	C358.080902,72.926689 358.275482,72.906136 358.470093,72.885574 
	C360.253845,74.351875 362.037598,75.818176 363.878906,77.677475 
	C363.936493,78.070473 363.667267,78.344734 363.667267,78.344734 
	C362.395905,78.063698 361.124573,77.782661 359.342560,77.467163 
z"/>
<path fill="#96A6B6" opacity="1.000000" stroke="none" 
	d="
M368.825073,79.381302 
	C371.883484,79.563698 374.578583,79.563698 377.273682,79.563698 
	C377.277039,79.774971 377.280426,79.986237 377.283783,80.197510 
	C373.607544,80.197510 369.931335,80.197510 366.255096,80.197510 
	C366.255249,79.864639 366.255402,79.531769 366.255524,79.198898 
	C366.990967,79.198898 367.726379,79.198898 368.825073,79.381302 
z"/>
<path fill="#8C9CAF" opacity="1.000000" stroke="none" 
	d="
M355.141144,66.883041 
	C355.938507,68.173576 356.581146,69.575279 357.192780,71.406372 
	C357.161774,71.835747 356.965820,72.028519 356.705231,71.921448 
	C355.964569,71.536995 355.484528,71.259605 355.004456,70.982216 
	C355.004456,70.982216 354.996674,71.001953 355.016174,70.618217 
	C354.915009,69.227013 354.794373,68.219543 354.673737,67.212074 
	C354.673737,67.212074 354.986389,66.994225 355.141144,66.883041 
z"/>
<path fill="#96A6B6" opacity="1.000000" stroke="none" 
	d="
M364.073059,77.935257 
	C364.403564,78.074966 364.597534,78.349892 364.791504,78.624817 
	C364.541870,78.653305 364.292267,78.681786 363.854950,78.527504 
	C363.667267,78.344734 363.936493,78.070473 364.073059,77.935257 
z"/>
<path fill="#8C9CAF" opacity="1.000000" stroke="none" 
	d="
M358.314270,72.649925 
	C358.275482,72.906136 358.080902,72.926689 357.477234,72.745758 
	C357.034058,72.372353 356.999939,72.200439 356.965820,72.028519 
	C356.965820,72.028519 357.161774,71.835747 357.260773,71.734879 
	C357.626007,71.894096 357.892212,72.154190 358.314270,72.649925 
z"/>
<path fill="#F9F9FA" opacity="1.000000" stroke="none" 
	d="
M166.493698,85.566238 
	C165.506134,91.144943 161.277435,90.803291 157.606277,90.879837 
	C153.127579,90.973213 153.426483,87.121399 152.373505,83.651459 
	C150.778122,82.024147 149.565598,80.933777 148.353088,79.843399 
	C148.183029,79.419861 148.012955,78.996315 147.822571,77.902466 
	C147.795059,76.495003 147.787842,75.757843 147.780640,75.020683 
	C147.981277,74.468941 148.181915,73.917198 148.606140,72.839813 
	C148.916977,71.886589 149.004272,71.459023 149.091553,71.031456 
	C150.147766,68.818535 151.203979,66.605621 152.533813,63.806610 
	C152.999313,62.526508 153.191177,61.832500 153.383041,61.138489 
	C153.383041,61.138489 153.598343,61.314995 153.841293,61.548622 
	C154.084244,61.782246 154.535919,61.984600 154.535919,61.984600 
	C154.535919,61.984600 155.019058,61.876949 155.387253,61.955624 
	C157.564514,62.061245 159.373581,62.088196 161.182648,62.115143 
	C166.580856,64.834488 168.520752,69.887886 169.431381,75.283867 
	C169.669388,76.694099 167.819122,78.456741 166.751007,80.561249 
	C166.388916,81.378777 166.446289,81.638969 166.746231,81.845551 
	C166.651154,82.946960 166.556076,84.048363 166.493698,85.566238 
z"/>
<path fill="#BAA335" opacity="1.000000" stroke="none" 
	d="
M161.213409,61.792473 
	C159.373581,62.088196 157.564514,62.061245 155.403915,61.640419 
	C154.747604,60.739063 154.442841,60.231579 154.138062,59.724098 
	C154.262085,58.503872 154.386124,57.283646 154.749878,55.927834 
	C155.436462,55.809956 155.883286,55.827663 157.008575,55.893040 
	C159.164200,56.092991 160.641403,56.245274 162.118591,56.397556 
	C164.020721,58.466473 164.108582,60.222618 161.213409,61.792473 
z"/>
<path fill="#111E35" opacity="1.000000" stroke="none" 
	d="
M162.085495,55.991745 
	C160.641403,56.245274 159.164200,56.092991 157.342987,55.864635 
	C157.012451,55.389290 157.025955,54.990017 157.045715,54.290852 
	C157.772232,53.682133 158.492477,53.373310 159.683899,53.308540 
	C160.765152,53.689045 161.375275,53.825497 161.985382,53.961945 
	C162.007721,54.503277 162.030060,55.044609 162.085495,55.991745 
z"/>
<path fill="#5E6570" opacity="1.000000" stroke="none" 
	d="
M161.894638,53.676006 
	C161.375275,53.825497 160.765152,53.689045 159.979065,53.281757 
	C159.988968,52.493938 160.174835,51.976955 160.426971,51.275650 
	C160.987747,52.136784 161.395813,52.763424 161.894638,53.676006 
z"/>
<path fill="#243244" opacity="1.000000" stroke="none" 
	d="
M166.842102,81.677094 
	C166.446289,81.638969 166.388916,81.378777 166.729065,80.906647 
	C167.000610,80.994766 167.018600,81.248199 166.842102,81.677094 
z"/>
<path fill="#EEF0F3" opacity="1.000000" stroke="none" 
	d="
M364.610107,47.802227 
	C375.531464,48.669506 382.940369,55.885128 381.999390,63.890388 
	C379.051056,60.170486 376.430786,55.721581 372.735565,52.509277 
	C368.674561,48.979034 363.543793,49.185497 358.372070,51.978615 
	C358.144531,47.772587 361.219299,47.888672 364.610107,47.802227 
z"/>
<path fill="#D0D7DF" opacity="1.000000" stroke="none" 
	d="
M354.465942,66.925049 
	C354.794373,68.219543 354.915009,69.227013 355.026733,70.619064 
	C351.208862,66.867851 351.527985,62.246094 353.718781,57.207413 
	C354.097137,60.196526 354.177643,63.417278 354.465942,66.925049 
z"/>
<path fill="#D0D7DF" opacity="1.000000" stroke="none" 
	d="
M356.705231,71.921448 
	C356.999939,72.200439 357.034058,72.372353 357.185760,72.780258 
	C357.303345,73.016266 357.100800,73.041466 356.785278,73.141235 
	C356.215118,73.459053 356.042389,73.729454 355.951569,74.052216 
	C355.582825,73.255516 355.214081,72.458817 354.924896,71.322174 
	C355.484528,71.259605 355.964569,71.536995 356.705231,71.921448 
z"/>
<path fill="#EEF0F3" opacity="1.000000" stroke="none" 
	d="
M357.675201,51.899292 
	C357.543701,52.615105 357.056488,53.237625 356.277771,53.946365 
	C356.430664,53.290386 356.875061,52.548191 357.675201,51.899292 
z"/>
<path fill="#D0D7DF" opacity="1.000000" stroke="none" 
	d="
M354.733582,55.127205 
	C354.868286,55.591015 354.719757,56.185062 354.279724,56.902618 
	C354.142242,56.436569 354.296295,55.847008 354.733582,55.127205 
z"/>
<path fill="#F4F6F8" opacity="1.000000" stroke="none" 
	d="
M356.904572,74.337410 
	C357.410553,74.578575 357.842987,75.182945 358.140320,76.162918 
	C357.613800,75.925880 357.222412,75.313248 356.904572,74.337410 
z"/>
<path fill="#F4F6F8" opacity="1.000000" stroke="none" 
	d="
M356.219543,74.155579 
	C356.042389,73.729454 356.215118,73.459053 356.684143,73.127716 
	C356.948090,73.179527 356.997711,73.344643 357.029877,73.767746 
	C356.837463,74.103477 356.662476,74.181206 356.219543,74.155579 
z"/>
<path fill="#EEF0F3" opacity="1.000000" stroke="none" 
	d="
M355.738831,53.995251 
	C355.865814,54.304592 355.700958,54.627743 355.256439,54.990063 
	C355.133484,54.689175 355.290222,54.349117 355.738831,53.995251 
z"/>
<path fill="#192C42" opacity="1.000000" stroke="none" 
	d="
M148.059753,79.987244 
	C149.565598,80.933777 150.778122,82.024147 152.057892,83.419975 
	C151.984863,84.942581 151.844589,86.159744 151.464478,87.652283 
	C149.861649,85.878281 148.498657,83.828888 147.044312,81.456635 
	C147.224106,80.799553 147.495270,80.465324 148.059753,79.987244 
z"/>
<path fill="#192C42" opacity="1.000000" stroke="none" 
	d="
M147.570969,75.203934 
	C147.787842,75.757843 147.795059,76.495003 147.691177,77.586082 
	C147.507156,77.089066 147.434235,76.238121 147.570969,75.203934 
z"/>
<path fill="#192C42" opacity="1.000000" stroke="none" 
	d="
M153.032227,61.312340 
	C153.191177,61.832500 152.999313,62.526508 152.545380,63.469566 
	C152.416031,62.974472 152.548721,62.230331 153.032227,61.312340 
z"/>
<path fill="#192C42" opacity="1.000000" stroke="none" 
	d="
M154.070709,60.126434 
	C154.442841,60.231579 154.747604,60.739063 155.035721,61.561745 
	C155.019058,61.876949 154.535919,61.984600 154.535919,61.984600 
	C154.535919,61.984600 154.084244,61.782246 153.980164,61.558449 
	C153.918488,61.066025 153.960907,60.797394 154.070709,60.126434 
z"/>
<path fill="#192C42" opacity="1.000000" stroke="none" 
	d="
M148.823868,71.245026 
	C149.004272,71.459023 148.916977,71.886589 148.592621,72.545639 
	C148.422440,72.337616 148.489319,71.898102 148.823868,71.245026 
z"/>
<path fill="#07223F" opacity="1.000000" stroke="none" 
	d="
M319.382812,123.724792 
	C315.685211,124.610733 313.054321,123.405502 313.165100,119.975716 
	C313.218475,118.323227 315.449707,115.909912 317.142242,115.434547 
	C318.265503,115.119080 320.772980,117.351219 321.528931,118.971184 
	C322.008698,119.999260 320.411285,121.996681 319.382812,123.724792 
z"/>
<path fill="#0F263F" opacity="1.000000" stroke="none" 
	d="
M328.236206,145.640717 
	C330.241486,141.690826 333.559662,139.786072 337.027924,141.196548 
	C339.485474,142.195999 341.272980,145.264297 342.933838,147.699509 
	C345.237915,151.077805 347.132660,154.734406 349.221527,158.260666 
	C351.042450,161.334625 350.179657,163.210495 346.778198,164.178299 
	C345.685150,164.489334 344.717377,165.650238 343.678955,165.668625 
	C340.285065,165.728745 336.892700,172.168900 333.671692,166.195328 
	C331.991547,163.079407 331.726501,159.207245 330.767395,155.691635 
	C330.477600,154.629318 329.913177,153.641037 329.633240,152.577087 
	C329.061432,150.403870 328.597321,148.202316 328.236206,145.640717 
M341.468719,158.037781 
	C341.461823,157.567337 341.554626,157.068146 341.428894,156.631973 
	C341.079559,155.420288 340.793976,153.329178 340.202850,153.228302 
	C338.989685,153.021286 337.237274,153.555984 336.415863,154.442413 
	C335.972839,154.920486 336.912537,156.787537 337.373749,157.971268 
	C338.113861,159.870819 338.974609,161.723358 339.912231,163.891449 
	C341.049622,163.488571 342.320435,163.038437 343.751770,162.531448 
	C343.006805,161.018600 342.425110,159.837219 341.468719,158.037781 
M335.014465,150.362030 
	C336.344757,149.477020 337.675049,148.591995 339.005371,147.706985 
	C338.024780,146.736969 337.155670,145.174973 336.032318,144.963455 
	C334.909363,144.752014 333.532043,145.891495 332.266235,146.438782 
	C332.963531,147.897552 333.660828,149.356308 335.014465,150.362030 
z"/>
<path fill="#E7E8EA" opacity="1.000000" stroke="none" 
	d="
M179.927673,202.952576 
	C178.228287,203.529434 176.528931,204.106277 174.586151,204.765762 
	C173.839539,202.822876 172.889175,201.045532 172.513809,199.154068 
	C172.210587,197.626190 172.600555,195.960739 172.682999,194.356308 
	C174.041824,195.111328 175.400635,195.866364 177.215210,196.254913 
	C178.149796,196.265121 178.628632,196.641815 178.747330,197.154968 
	C178.900696,199.178467 179.414185,201.065521 179.927673,202.952576 
z"/>
<path fill="#5E6570" opacity="1.000000" stroke="none" 
	d="
M180.271240,202.925735 
	C179.414185,201.065521 178.900696,199.178467 179.061096,197.138092 
	C180.153381,196.997314 180.571762,197.009888 180.990158,197.022461 
	C180.990158,197.022446 181.455765,196.938446 182.020721,196.882812 
	C182.806549,196.795013 183.027405,196.762848 183.248276,196.730682 
	C184.414825,197.429749 185.581390,198.128799 186.747955,198.827850 
	C186.585846,199.181534 186.423737,199.535217 186.261627,199.888885 
	C184.906723,199.650925 183.551834,199.412949 182.215546,199.178253 
	C181.679962,200.423126 181.147400,201.661011 180.271240,202.925735 
z"/>
<path fill="#3F4854" opacity="1.000000" stroke="none" 
	d="
M180.982666,196.625732 
	C180.571762,197.009888 180.153381,196.997314 179.421219,197.001617 
	C178.628632,196.641815 178.149796,196.265121 177.341583,195.961578 
	C177.753494,194.406158 178.494812,192.777588 179.236115,191.149017 
	C179.733780,191.305435 180.231430,191.461838 180.729080,191.618256 
	C180.811111,193.155167 180.893143,194.692093 180.982666,196.625732 
z"/>
<path fill="#3F4854" opacity="1.000000" stroke="none" 
	d="
M183.423080,196.512787 
	C183.027405,196.762848 182.806549,196.795013 182.250275,196.825684 
	C182.169327,195.780487 182.423752,194.736801 182.678192,193.693115 
	C183.268219,193.924622 183.858231,194.156128 184.448257,194.387634 
	C184.164810,195.023376 183.881348,195.659134 183.423080,196.512787 
z"/>
<path fill="#0C314E" opacity="1.000000" stroke="none" 
	d="
M148.656372,213.714478 
	C148.356598,213.703903 148.289597,213.469803 148.222595,213.235703 
	C148.444778,213.320786 148.666946,213.405869 148.656372,213.714478 
z"/>
<path fill="#49B65A" opacity="1.000000" stroke="none" 
	d="
M294.902557,67.461014 
	C294.200623,71.300705 291.836761,73.077713 288.814575,71.915283 
	C286.980591,71.209869 284.811951,68.576500 284.732910,66.726410 
	C284.595581,63.511055 285.613495,60.080128 286.925293,57.079853 
	C287.276276,56.277035 290.885071,55.939995 292.241089,56.714626 
	C296.335815,59.053680 294.918640,63.335594 294.902557,67.461014 
z"/>
<path fill="#ECECEE" opacity="1.000000" stroke="none" 
	d="
M341.656067,158.346802 
	C342.425110,159.837219 343.006805,161.018600 343.751770,162.531448 
	C342.320435,163.038437 341.049622,163.488571 339.912231,163.891449 
	C338.974609,161.723358 338.113861,159.870819 337.373749,157.971268 
	C336.912537,156.787537 335.972839,154.920486 336.415863,154.442413 
	C337.237274,153.555984 338.989685,153.021286 340.202850,153.228302 
	C340.793976,153.329178 341.079559,155.420288 341.428894,156.631973 
	C341.554626,157.068146 341.461823,157.567337 341.656067,158.346802 
z"/>
<path fill="#EFEFF1" opacity="1.000000" stroke="none" 
	d="
M334.686279,150.588547 
	C333.660828,149.356308 332.963531,147.897552 332.266235,146.438782 
	C333.532043,145.891495 334.909363,144.752014 336.032318,144.963455 
	C337.155670,145.174973 338.024780,146.736969 339.005371,147.706970 
	C337.675049,148.591995 336.344757,149.477020 334.686279,150.588547 
z"/>
</svg>