<?xml version="1.0" standalone="no"?>
<!DOCTYPE svg PUBLIC "-//W3C//DTD SVG 20010904//EN"
 "http://www.w3.org/TR/2001/REC-SVG-20010904/DTD/svg10.dtd">
<svg version="1.0" xmlns="http://www.w3.org/2000/svg"
 width="711.000000pt" height="400.000000pt" viewBox="0 0 711.000000 400.000000"
 preserveAspectRatio="xMidYMid meet">

<g  transform="translate(0.000000,400.000000) scale(0.100000,-0.100000)"
fill="#4EA3F1" stroke="none">
<path d="M4375 3924 c-255 -64 -445 -275 -445 -495 0 -46 -1 -47 -59 -83 -81
-49 -157 -136 -202 -229 -37 -77 -67 -205 -53 -228 5 -8 35 -10 103 -6 l96 5
37 -34 c24 -21 60 -40 98 -51 65 -18 70 -26 44 -74 -10 -21 -20 -28 -32 -25
-52 16 -165 27 -220 21 -134 -14 -247 -60 -345 -140 -38 -30 -59 -42 -61 -33
-2 7 -14 96 -26 198 -46 391 -99 796 -105 812 -8 19 -383 326 -428 350 -31 16
-51 14 -502 -42 -259 -32 -668 -82 -910 -110 -242 -29 -448 -56 -457 -61 -10
-6 -18 -21 -18 -35 0 -14 31 -279 70 -589 39 -310 70 -570 70 -578 0 -12 -13
-13 -70 -9 -82 6 -113 -9 -137 -66 -19 -46 -12 -152 13 -205 15 -31 16 -42 6
-75 -26 -86 -8 -218 37 -267 14 -15 20 -41 23 -100 9 -153 82 -232 251 -269
17 -4 27 -13 27 -24 0 -26 79 -693 86 -725 3 -15 14 -32 24 -37 13 -7 122 2
362 30 189 22 422 49 518 60 96 11 266 32 378 45 192 24 207 25 277 10 41 -8
89 -15 106 -15 28 0 55 -22 213 -178 100 -98 228 -215 286 -261 58 -46 114
-91 126 -100 13 -12 35 -67 64 -164 l44 -147 851 0 851 0 18 78 c10 42 30 109
44 147 40 113 208 434 267 510 105 135 189 324 246 551 26 105 39 138 69 179
52 68 95 159 122 252 20 66 23 100 22 223 -1 127 -4 156 -28 235 -33 107 -72
183 -135 261 -109 136 -268 225 -444 249 -47 6 -48 7 -81 73 -57 114 -104 252
-154 458 -27 110 -65 238 -84 286 -86 211 -214 337 -415 410 -78 28 -346 36
-438 12z m395 -139 c150 -45 259 -153 331 -329 17 -39 54 -166 84 -282 49
-193 109 -375 148 -451 l16 -30 -54 -7 c-127 -15 -277 -89 -362 -179 -45 -48
-110 -153 -101 -163 2 -2 51 29 108 68 182 123 285 158 466 158 184 0 312 -47
426 -158 81 -78 113 -139 129 -244 21 -132 -13 -260 -101 -386 -97 -138 -257
-238 -453 -282 -91 -21 -96 -24 -77 -37 34 -24 132 -61 182 -68 46 -7 47 -8
42 -39 -46 -261 -244 -491 -526 -607 -71 -30 -82 -38 -110 -83 -48 -79 -157
-180 -238 -221 -107 -54 -182 -68 -330 -62 -69 2 -134 8 -145 12 -35 12 66
-74 127 -109 l59 -33 -84 -7 c-251 -20 -517 65 -749 240 -88 66 -342 302 -452
420 l-66 72 -68 6 c-156 15 -263 57 -346 136 -82 78 -102 154 -71 270 10 39
13 78 8 132 l-6 77 47 47 c30 31 50 62 56 88 14 56 22 69 55 85 39 19 83 4
191 -68 102 -67 131 -79 140 -57 7 19 -10 53 -49 93 l-31 33 27 0 c48 0 97
-28 157 -89 78 -80 95 -125 87 -241 l-6 -89 31 -26 c43 -36 103 -70 185 -104
124 -51 198 -63 458 -72 276 -10 357 -24 505 -89 131 -57 280 -111 280 -101 0
18 -80 118 -120 150 -45 36 -166 101 -187 101 -20 0 -26 66 -13 133 15 79 63
170 118 225 46 46 152 103 234 123 l50 13 -7 72 c-8 85 7 203 39 307 13 42 21
77 17 77 -4 0 -34 -28 -68 -63 -75 -75 -121 -168 -130 -262 -5 -58 -8 -64 -31
-70 -49 -12 -163 -87 -216 -140 -29 -30 -66 -79 -82 -110 l-29 -56 -50 7 c-70
9 -136 36 -194 78 -60 44 -68 74 -51 194 23 168 79 282 200 403 120 121 271
203 453 245 93 21 82 32 -34 33 -427 4 -739 -305 -739 -731 l0 -108 -41 -30
c-47 -33 -138 -70 -175 -70 -50 0 -113 22 -119 41 -15 46 -22 187 -14 262 12
103 59 243 111 332 55 93 174 210 268 265 92 53 130 88 181 164 29 44 52 65
87 81 62 30 135 106 166 176 37 80 52 196 31 245 -23 56 -234 265 -292 289 -1
1 2 30 8 64 29 185 184 320 404 355 59 9 251 -3 305 -19z m-2070 -200 c0 -189
1 -205 18 -205 9 1 98 11 197 24 99 13 183 21 188 19 4 -2 7 -17 7 -34 0 -16
16 -154 35 -306 58 -467 95 -777 95 -800 0 -28 23 -24 -365 -68 -176 -20 -495
-56 -710 -81 -509 -58 -511 -59 -519 -46 -3 5 1 29 9 52 35 98 8 233 -53 264
-16 8 -121 27 -233 41 -112 15 -206 28 -208 30 -3 4 -72 547 -111 885 -11 96
-23 187 -26 201 l-5 26 133 17 c73 9 261 32 418 51 559 67 877 105 980 119 58
7 115 14 128 15 l22 1 0 -205z m238 53 c53 -44 98 -83 100 -87 2 -6 -166 -31
-205 -31 -10 0 -13 28 -13 106 0 71 3 103 10 99 6 -4 55 -43 108 -87z m1141
-403 c26 -18 70 -58 97 -87 l49 -52 -35 -7 c-19 -4 -87 -12 -150 -19 -73 -7
-146 -21 -200 -40 -47 -15 -86 -27 -88 -25 -11 10 60 128 101 168 51 49 128
96 161 97 10 0 39 -16 65 -35z m105 -266 c-27 -30 -92 -59 -136 -59 -39 0
-118 27 -118 40 0 4 46 13 103 20 56 6 107 13 112 15 6 2 21 4 34 4 24 1 24 1
5 -20z m-2974 -614 c140 -19 273 -39 295 -43 l40 -7 3 -62 c3 -57 0 -66 -24
-89 -26 -27 -26 -27 -143 -21 -115 6 -278 33 -356 60 -47 16 -73 49 -86 106
-9 40 -4 91 10 91 3 0 121 -16 261 -35z m-160 -256 c81 -25 256 -55 378 -65
104 -8 122 -18 122 -68 0 -86 -86 -122 -275 -113 -215 10 -312 60 -323 166 -5
58 3 101 21 101 6 0 41 -9 77 -21z m1963 -80 l-91 -92 -104 12 c-113 12 -157
6 -203 -31 -29 -23 -64 -90 -65 -124 0 -11 -16 -36 -36 -55 -53 -51 -74 -98
-74 -168 l0 -59 -88 -94 -88 -94 -310 244 c-170 134 -317 250 -328 257 -18 13
-18 15 7 44 14 17 28 44 32 60 5 25 12 30 48 35 40 6 493 58 967 112 118 13
244 28 280 33 36 5 83 9 105 10 l40 1 -92 -91z m271 -71 c10 -90 20 -174 23
-188 4 -20 -8 -11 -59 43 -34 37 -87 80 -116 96 l-53 28 87 91 c47 51 89 92
93 92 4 0 15 -73 25 -162z m-2057 -168 c60 -7 147 -11 191 -9 l82 4 0 -41 c0
-101 -149 -149 -333 -108 -58 14 -79 24 -109 54 -34 33 -38 43 -38 87 l0 50
48 -12 c27 -7 98 -18 159 -25z m533 -201 c89 -69 128 -105 123 -114 -7 -10
-345 -395 -480 -545 l-31 -35 -5 25 c-6 28 -67 559 -67 576 0 6 27 14 62 18
88 9 179 53 217 107 17 23 31 48 31 56 0 7 4 13 10 13 5 0 68 -45 140 -101z
m360 -284 c74 -58 141 -105 150 -105 8 0 44 30 81 66 l66 66 6 -62 c7 -79 43
-151 106 -216 l51 -52 -33 -5 c-29 -6 -333 -42 -817 -97 -96 -11 -190 -23
-209 -26 -32 -5 -28 1 95 138 71 79 180 201 243 271 63 70 117 127 121 127 3
0 67 -47 140 -105z"/>
<path d="M4409 3479 c-41 -44 -41 -105 0 -151 26 -29 35 -33 76 -32 79 2 128
68 105 140 -16 48 -53 74 -107 74 -37 0 -50 -5 -74 -31z"/>
<path d="M3310 850 c111 -128 255 -229 395 -276 72 -24 90 -26 180 -21 58 3
121 12 150 23 l50 18 -88 13 c-207 30 -489 140 -672 263 -70 47 -71 45 -15
-20z"/>
<path d="M2398 3481 c-31 -27 -33 -34 -33 -93 0 -81 8 -109 41 -141 31 -31 95
-37 131 -12 62 44 50 211 -19 259 -36 25 -83 20 -120 -13z m100 -53 c16 -35
18 -124 2 -143 -33 -40 -70 6 -72 88 -2 84 40 117 70 55z"/>
<path d="M2152 3439 c-45 -33 -47 -36 -33 -58 8 -12 13 -12 36 3 15 10 28 16
29 14 2 -2 8 -46 15 -98 7 -52 15 -98 19 -102 4 -3 19 -4 34 -1 22 4 27 10 23
27 -4 20 -35 231 -35 241 0 16 -52 0 -88 -26z"/>
<path d="M1900 3438 c-41 -21 -62 -74 -55 -136 10 -95 49 -142 117 -142 56 0
89 34 95 96 6 60 -10 125 -40 159 -26 31 -81 41 -117 23z m74 -60 c21 -32 31
-120 17 -147 -31 -57 -81 2 -81 97 0 69 34 96 64 50z"/>
<path d="M1680 3403 c-32 -13 -80 -56 -80 -73 0 -27 12 -31 38 -14 13 8 26 13
28 11 3 -3 10 -48 16 -101 l12 -96 34 0 c33 0 34 1 29 33 -4 17 -11 70 -17
117 -17 137 -18 139 -60 123z"/>
<path d="M1385 3376 c-39 -17 -55 -53 -55 -124 1 -113 56 -177 137 -156 55 14
78 52 77 128 -2 75 -26 131 -65 151 -34 18 -55 18 -94 1z m80 -77 c20 -39 20
-133 -1 -150 -34 -28 -72 33 -73 118 -1 72 44 92 74 32z"/>
<path d="M2233 3040 c-38 -15 -57 -56 -56 -124 0 -112 50 -175 127 -160 71 13
103 94 76 193 -22 81 -81 118 -147 91z m75 -73 c7 -15 14 -52 15 -83 2 -44 -2
-58 -16 -69 -39 -29 -67 17 -67 109 0 77 40 102 68 43z"/>
<path d="M1967 2967 c-28 -23 -36 -37 -32 -49 9 -22 15 -22 41 -3 27 20 34 19
34 -10 0 -13 5 -58 11 -100 9 -58 15 -75 28 -75 42 1 44 11 26 144 -18 125
-18 126 -44 126 -15 0 -43 -14 -64 -33z"/>
<path d="M1720 2972 c-26 -12 -39 -28 -48 -57 -17 -50 -8 -130 18 -173 36 -59
114 -66 161 -16 21 22 24 35 23 92 -1 85 -29 145 -75 161 -40 14 -38 14 -79
-7z m78 -67 c17 -36 15 -140 -2 -154 -18 -15 -41 -5 -55 25 -12 27 -15 136 -4
147 16 16 50 6 61 -18z"/>
<path d="M2532 2610 c-27 -19 -42 -38 -42 -51 0 -21 9 -22 51 -5 14 6 18 -7
29 -93 l12 -101 34 0 c30 0 34 3 29 23 -4 19 -35 240 -35 252 0 15 -43 1 -78
-25z"/>
<path d="M2267 2589 c-70 -54 -49 -230 30 -260 37 -14 85 -4 111 24 47 50 36
185 -19 232 -37 31 -86 33 -122 4z m91 -63 c21 -43 21 -122 -1 -143 -16 -17
-18 -16 -38 4 -24 23 -37 102 -25 148 9 35 46 30 64 -9z"/>
<path d="M2018 2542 c-39 -28 -44 -38 -29 -61 7 -11 13 -10 34 3 25 17 25 17
31 -11 3 -15 8 -53 11 -83 10 -87 13 -93 43 -85 15 4 28 7 29 8 1 1 -6 58 -16
127 -16 120 -18 125 -41 127 -15 2 -41 -9 -62 -25z"/>
<path d="M1765 2539 c-66 -32 -71 -174 -9 -249 21 -25 33 -30 68 -30 82 0 118
68 95 178 -19 93 -83 135 -154 101z m69 -55 c15 -14 19 -26 31 -89 3 -12 1
-34 -4 -50 -10 -41 -50 -42 -69 -1 -19 38 -20 119 -3 139 17 21 25 21 45 1z"/>
</g>
</svg>
