<svg version="1.1" id="Layer_1" xmlns="http://www.w3.org/2000/svg" xmlns:xlink="http://www.w3.org/1999/xlink" x="0px" y="0px"
	 width="100%" viewBox="0 0 711 400" enable-background="new 0 0 711 400" xml:space="preserve">
<path fill="#6ABBF1" opacity="1.000000" stroke="none" 
	d="
M520.000000,401.000000 
	C346.666656,401.000000 173.833328,401.000000 1.000000,401.000000 
	C1.000000,267.666656 1.000000,134.333328 1.000000,1.000000 
	C238.000000,1.000000 475.000000,1.000000 712.000000,1.000000 
	C712.000000,134.333328 712.000000,267.666656 712.000000,401.000000 
	C648.166687,401.000000 584.333313,401.000000 520.000000,401.000000 
M186.322983,101.437660 
	C186.798828,101.624931 187.274658,101.812202 187.940903,102.788696 
	C189.715729,113.285622 194.839569,122.078964 201.637695,130.072021 
	C202.564560,131.161819 203.274338,132.772522 203.354980,134.183746 
	C203.614304,138.721344 202.768738,143.444977 203.718460,147.798141 
	C207.107834,163.333664 216.277573,175.045364 229.101242,184.157425 
	C230.992752,185.501480 232.837540,187.353226 233.855804,189.393402 
	C236.058914,193.807510 237.176285,198.815491 239.681366,203.018082 
	C251.692017,223.167496 270.549103,234.065994 292.203247,241.000519 
	C294.108551,241.610672 295.995026,242.279495 298.728210,243.204742 
	C275.736115,258.046509 251.459457,266.197052 225.361099,267.650421 
	C213.235840,268.325684 200.921448,266.141174 188.730545,264.886292 
	C182.141495,264.208038 179.272980,266.303070 179.576370,272.885925 
	C179.690521,275.362610 180.056549,277.865845 180.640060,280.276520 
	C183.995224,294.138123 191.625412,305.445190 201.675797,315.321320 
	C203.011505,316.633881 204.079819,318.346832 204.869598,320.059875 
	C206.496140,323.587799 207.251556,327.660370 209.425522,330.766998 
	C217.048187,341.659851 227.786530,348.921051 239.317932,355.166809 
	C244.448151,357.945526 249.484406,358.191162 254.517639,355.301849 
	C261.574982,351.250671 269.364410,347.981079 275.381622,342.711212 
	C289.255341,330.560608 302.331573,317.489563 315.521118,304.577209 
	C317.745605,302.399506 319.334045,302.011993 322.370667,302.666321 
	C331.279053,304.585968 340.279053,306.649292 349.333618,307.219208 
	C381.924835,309.270660 412.541351,302.506317 439.987030,284.254730 
	C462.910858,269.010223 478.721832,247.648376 491.342651,223.678024 
	C491.833893,223.757599 492.325134,223.906693 492.816406,223.906845 
	C539.930176,223.920853 587.046021,224.136230 634.154907,223.658844 
	C640.070190,223.598892 646.434082,220.724731 651.732483,217.667984 
	C660.120972,212.828461 664.270752,201.578278 662.359619,192.569275 
	C659.995911,181.427063 652.631348,173.665192 641.934570,172.110229 
	C636.857910,171.372238 631.585083,171.983475 626.395752,171.983475 
	C625.177185,167.132050 624.531250,160.809647 621.961609,155.401245 
	C619.469910,150.156952 615.748169,144.870651 611.194641,141.406235 
	C606.515198,137.846054 600.279846,134.777069 594.545227,134.424759 
	C568.773071,132.841309 556.810913,148.045761 552.667786,171.686096 
	C551.213745,171.022766 550.167847,170.533646 549.112488,170.065948 
	C532.743225,162.811737 518.694702,166.896820 509.073120,182.056564 
	C507.243408,184.939438 505.286285,183.910873 503.010498,182.861862 
	C506.448883,166.104858 509.748840,149.294937 516.860596,133.593231 
	C517.869263,131.366135 519.790283,129.154022 521.867676,127.874138 
	C534.895142,119.847763 548.111816,112.129257 561.212708,104.220840 
	C567.255249,100.573181 567.395874,98.595680 562.295288,93.585602 
	C556.472046,87.865654 549.725037,83.554504 541.684753,82.026169 
	C534.384827,80.638573 526.931030,80.059883 519.292786,79.092628 
	C519.201294,78.820107 518.950073,78.209557 518.790344,77.575928 
	C510.618011,45.154480 475.899384,27.363178 443.656860,38.085228 
	C420.188751,45.889385 405.528442,62.792194 397.032776,85.472855 
	C392.898438,96.510170 389.400757,107.794556 385.009308,118.723785 
	C382.348511,125.345886 378.529083,131.502441 375.116821,138.086929 
	C359.460785,125.530579 342.654846,117.561844 324.777618,112.016434 
	C309.585449,107.303902 294.086395,103.580589 279.660706,99.171616 
	C282.657745,99.112473 285.669403,99.221992 288.649170,98.963692 
	C299.070557,98.060326 307.075653,93.232231 311.427887,83.559860 
	C315.903992,73.612221 314.094940,64.218132 306.974884,56.184055 
	C300.184967,48.522499 291.548431,45.497066 281.322906,47.942150 
	C279.476654,48.383617 277.603424,48.712364 275.769012,49.087761 
	C270.182159,26.327681 258.327087,13.651160 241.373108,12.067331 
	C232.570511,11.244997 224.176453,12.442468 216.336945,16.967545 
	C204.295380,23.918095 197.056793,34.372322 193.694778,47.908779 
	C192.175323,47.176727 191.138550,46.669514 190.095383,46.175785 
	C173.979340,38.548008 158.670029,44.501663 151.525177,60.951473 
	C150.947739,62.280975 148.843643,63.216251 147.252472,63.785725 
	C142.642761,65.435532 137.373062,65.931709 133.389694,68.483971 
	C126.954987,72.606880 124.921478,81.274231 127.332695,88.531227 
	C129.699127,95.653435 136.796509,100.760300 145.035858,100.860321 
	C158.691925,101.026123 172.350601,100.978340 186.322983,101.437660 
M507.026062,271.267487 
	C505.864563,271.162445 504.700897,271.077423 503.541931,270.949463 
	C481.372986,268.501709 461.349152,281.795624 455.070160,303.202545 
	C454.140503,306.371918 453.503143,309.627045 452.634857,313.240875 
	C440.263428,306.850433 427.636444,305.307068 414.917480,310.808289 
	C401.993225,316.398346 394.693207,326.628662 392.629364,340.826385 
	C390.812256,340.330933 389.255310,339.867310 387.679077,339.482697 
	C372.992737,335.899261 359.029327,345.862091 359.115936,359.851013 
	C359.189362,371.714142 369.240112,380.898376 382.386841,380.906525 
	C438.384308,380.941284 494.381836,380.937866 550.379211,380.878021 
	C553.344910,380.874847 556.419312,380.615173 559.256775,379.814514 
	C573.623657,375.760803 582.239929,366.448608 584.607239,351.525330 
	C586.258789,341.114471 579.859802,327.857697 569.911072,321.751068 
	C561.645569,316.677704 552.751953,315.845032 543.161133,318.692108 
	C542.669861,294.224518 531.941101,277.755371 507.026062,271.267487 
M74.109772,285.618347 
	C69.600891,288.514069 65.092010,291.409790 60.583130,294.305511 
	C60.883362,294.897919 61.183590,295.490356 61.483822,296.082794 
	C117.763527,270.832947 174.043228,245.583099 230.575729,220.219849 
	C225.222839,213.040192 220.592545,206.829742 215.586090,200.114746 
	C167.390717,226.366501 121.466774,256.482391 74.109772,285.618347 
M136.144760,185.658051 
	C124.881287,193.053726 113.580193,200.392914 102.364998,207.861084 
	C91.343819,215.200027 80.409866,222.669968 69.437637,230.082428 
	C69.799866,230.701248 70.162102,231.320068 70.524330,231.938889 
	C112.096954,210.206558 153.669586,188.474243 195.596313,166.556808 
	C192.311401,162.078476 189.870377,158.750626 186.616714,154.314911 
	C169.994125,164.626297 153.368942,174.939285 136.144760,185.658051 
M57.017548,359.038116 
	C58.867413,358.336304 60.793064,357.786865 62.555935,356.910126 
	C97.383644,339.588379 132.194031,322.231842 166.999557,304.865540 
	C168.440872,304.146393 169.800507,303.263550 171.455551,302.308472 
	C169.259766,297.961792 167.272995,294.028809 165.180679,289.886902 
	C164.186005,290.288483 163.410492,290.529205 162.701691,290.898071 
	C125.733643,310.136932 91.915810,334.411652 57.075359,357.050079 
	C56.609821,357.352509 56.573029,358.314758 57.017548,359.038116 
M143.192459,371.648010 
	C161.458786,363.423187 179.725113,355.198364 198.349533,346.812286 
	C195.011459,341.913940 192.256958,337.871918 189.056717,333.175812 
	C166.988373,348.392731 145.318634,363.334778 123.648903,378.276855 
	C123.871880,378.714844 124.094864,379.152832 124.317841,379.590820 
	C130.371857,377.035583 136.425873,374.480347 143.192459,371.648010 
z"/>
<path fill="#022A5C" opacity="1.000000" stroke="none" 
	d="
M490.628906,223.158905 
	C478.721832,247.648376 462.910858,269.010223 439.987030,284.254730 
	C412.541351,302.506317 381.924835,309.270660 349.333618,307.219208 
	C340.279053,306.649292 331.279053,304.585968 322.370667,302.666321 
	C319.334045,302.011993 317.745605,302.399506 315.521118,304.577209 
	C302.331573,317.489563 289.255341,330.560608 275.381622,342.711212 
	C269.364410,347.981079 261.574982,351.250671 254.517639,355.301849 
	C249.484406,358.191162 244.448151,357.945526 239.317932,355.166809 
	C227.786530,348.921051 217.048187,341.659851 209.425522,330.766998 
	C207.251556,327.660370 206.496140,323.587799 204.869598,320.059875 
	C204.079819,318.346832 203.011505,316.633881 201.675797,315.321320 
	C191.625412,305.445190 183.995224,294.138123 180.640060,280.276520 
	C180.056549,277.865845 179.690521,275.362610 179.576370,272.885925 
	C179.272980,266.303070 182.141495,264.208038 188.730545,264.886292 
	C200.921448,266.141174 213.235840,268.325684 225.361099,267.650421 
	C251.459457,266.197052 275.736115,258.046509 298.728210,243.204742 
	C295.995026,242.279495 294.108551,241.610672 292.203247,241.000519 
	C270.549103,234.065994 251.692017,223.167496 239.681366,203.018082 
	C237.176285,198.815491 236.058914,193.807510 233.855804,189.393402 
	C232.837540,187.353226 230.992752,185.501480 229.101242,184.157425 
	C216.277573,175.045364 207.107834,163.333664 203.718460,147.798141 
	C202.768738,143.444977 203.614304,138.721344 203.354980,134.183746 
	C203.274338,132.772522 202.564560,131.161819 201.637695,130.072021 
	C194.839569,122.078964 189.715729,113.285622 187.883957,102.158417 
	C187.647934,101.141335 187.468857,100.754524 187.232071,99.880058 
	C187.634186,92.443031 187.567047,85.407181 188.689606,78.566559 
	C190.040237,70.336136 194.127609,68.623711 201.484818,72.239510 
	C202.527649,72.752022 203.526291,73.353622 204.557251,73.891205 
	C228.000351,86.115440 253.030518,93.730034 278.723145,99.419594 
	C294.086395,103.580589 309.585449,107.303902 324.777618,112.016434 
	C342.654846,117.561844 359.460785,125.530579 375.116821,138.086929 
	C378.529083,131.502441 382.348511,125.345886 385.009308,118.723785 
	C389.400757,107.794556 392.898438,96.510170 397.032776,85.472855 
	C405.528442,62.792194 420.188751,45.889385 443.656860,38.085228 
	C475.899384,27.363178 510.618011,45.154480 518.790344,77.575928 
	C518.950073,78.209557 519.201294,78.820107 519.292786,79.092628 
	C526.931030,80.059883 534.384827,80.638573 541.684753,82.026169 
	C549.725037,83.554504 556.472046,87.865654 562.295288,93.585602 
	C567.395874,98.595680 567.255249,100.573181 561.212708,104.220840 
	C548.111816,112.129257 534.895142,119.847763 521.867676,127.874138 
	C519.790283,129.154022 517.869263,131.366135 516.860596,133.593231 
	C509.748840,149.294937 506.448883,166.104858 502.901123,183.642517 
	C498.737457,197.335068 494.683197,210.246994 490.628906,223.158905 
M250.056168,195.105576 
	C249.818741,195.167480 249.581299,195.229401 249.343887,195.291306 
	C249.476654,195.610657 249.609436,195.930008 249.919800,196.912964 
	C256.266754,207.218414 264.965057,215.044128 275.385223,221.051651 
	C294.064880,231.820969 314.307343,234.977173 335.524933,233.411804 
	C338.061829,233.224625 340.607178,233.151779 343.148590,233.025940 
	C342.225586,235.071106 341.106293,236.351288 339.696381,236.990067 
	C334.273132,239.447113 328.738861,241.657532 323.280884,244.039902 
	C318.761566,246.012589 313.955078,247.578445 309.861420,250.228973 
	C296.671112,258.769257 282.941528,266.069366 268.010345,271.113464 
	C243.603943,279.358551 218.711777,281.614197 192.965576,277.429413 
	C192.780548,277.771637 192.595520,278.113892 192.436584,279.213013 
	C195.850967,291.055481 203.044830,300.441711 211.545959,309.056702 
	C214.192719,311.738892 216.655289,312.574097 220.358536,311.271729 
	C234.712677,306.223572 249.163086,301.449158 263.831482,296.831146 
	C263.831482,296.831146 264.092346,297.082397 263.873932,297.718994 
	C251.961212,311.256744 236.647797,319.191193 219.129456,324.211853 
	C225.942749,333.241119 234.188187,339.632324 243.671295,344.277893 
	C245.776276,345.309113 249.534882,344.967346 251.603073,343.718811 
	C259.846680,338.742157 268.458801,333.979309 275.570496,327.613495 
	C287.463196,316.968140 298.491272,305.326874 309.504303,293.744446 
	C313.556732,289.482452 316.974457,288.581787 322.844818,290.352661 
	C359.113495,301.293732 394.275177,297.426453 426.829407,278.413330 
	C461.585358,258.114288 481.012665,226.164307 489.835602,187.535110 
	C494.571625,166.799576 498.221954,145.795670 507.016235,126.232132 
	C508.454590,123.032394 508.385529,120.632423 506.460266,117.569237 
	C501.281311,109.329201 501.332062,100.982742 507.085205,92.838707 
	C507.979828,91.572266 508.787476,89.845009 508.730957,88.365395 
	C507.747498,62.615223 480.208008,41.971939 454.660919,47.556160 
	C431.253326,52.672722 416.381805,67.252068 408.137939,89.166718 
	C404.922058,97.715446 402.623871,106.624588 399.148834,115.056824 
	C394.743378,125.746788 389.565125,136.118256 384.627838,146.827286 
	C392.531281,156.344940 396.426331,167.914032 394.255493,176.730698 
	C392.699524,174.711258 391.269745,172.935822 389.925140,171.098068 
	C376.134064,152.248749 358.947876,137.263687 336.965637,129.239899 
	C318.457397,122.484207 299.311462,117.383301 280.270477,112.201630 
	C253.659241,104.959846 226.662613,98.984390 202.034851,85.879555 
	C201.251160,85.462540 200.260925,85.433678 199.293518,85.206619 
	C196.965912,99.286224 201.087509,111.066681 209.909286,121.594765 
	C216.247757,129.159210 224.469070,133.773499 233.510483,136.875320 
	C241.975983,139.779602 250.770569,141.714325 259.300110,144.450577 
	C261.122559,145.035233 263.928009,147.647705 263.664276,148.605408 
	C263.077820,150.734741 261.136169,152.900116 259.167816,154.103668 
	C257.721985,154.987732 255.212204,154.862839 253.424561,154.339905 
	C240.425262,150.537262 227.488876,146.519516 214.116684,142.443008 
	C215.452271,146.245361 216.574875,150.905853 218.655762,155.089706 
	C224.778122,167.399323 234.830643,175.557175 247.275635,181.027969 
	C260.213623,186.715454 273.937958,189.036026 287.791382,191.021988 
	C289.739624,191.301300 292.516113,193.136475 292.988953,194.798004 
	C293.883026,197.939392 292.138733,200.860153 288.534576,201.322845 
	C285.119934,201.761215 281.509308,202.109985 278.177246,201.480286 
	C268.893799,199.725830 259.710175,197.443069 250.056168,195.105576 
M516.237183,106.756645 
	C526.757080,103.756592 537.276978,100.756538 548.768616,97.479355 
	C540.994263,92.619049 533.526245,91.286926 525.875244,91.276398 
	C515.512390,91.262146 513.797302,93.147774 513.362732,103.469398 
	C513.327942,104.295570 513.163635,105.259621 513.515991,105.913673 
	C513.800598,106.442055 514.773804,106.599495 516.237183,106.756645 
z"/>
<path fill="#FEFEFF" opacity="1.000000" stroke="none" 
	d="
M507.434875,271.364960 
	C531.941101,277.755371 542.669861,294.224518 543.161133,318.692108 
	C552.751953,315.845032 561.645569,316.677704 569.911072,321.751068 
	C579.859802,327.857697 586.258789,341.114471 584.607239,351.525330 
	C582.239929,366.448608 573.623657,375.760803 559.256775,379.814514 
	C556.419312,380.615173 553.344910,380.874847 550.379211,380.878021 
	C494.381836,380.937866 438.384308,380.941284 382.386841,380.906525 
	C369.240112,380.898376 359.189362,371.714142 359.115936,359.851013 
	C359.029327,345.862091 372.992737,335.899261 387.679077,339.482697 
	C389.255310,339.867310 390.812256,340.330933 392.629364,340.826385 
	C394.693207,326.628662 401.993225,316.398346 414.917480,310.808289 
	C427.636444,305.307068 440.263428,306.850433 452.634857,313.240875 
	C453.503143,309.627045 454.140503,306.371918 455.070160,303.202545 
	C461.349152,281.795624 481.372986,268.501709 503.541931,270.949463 
	C504.700897,271.077423 505.864563,271.162445 507.434875,271.364960 
z"/>
<path fill="#FEFFFF" opacity="1.000000" stroke="none" 
	d="
M490.985779,223.418472 
	C494.683197,210.246994 498.737457,197.335068 502.943176,184.021988 
	C505.286285,183.910873 507.243408,184.939438 509.073120,182.056564 
	C518.694702,166.896820 532.743225,162.811737 549.112488,170.065948 
	C550.167847,170.533646 551.213745,171.022766 552.667786,171.686096 
	C556.810913,148.045761 568.773071,132.841309 594.545227,134.424759 
	C600.279846,134.777069 606.515198,137.846054 611.194641,141.406235 
	C615.748169,144.870651 619.469910,150.156952 621.961609,155.401245 
	C624.531250,160.809647 625.177185,167.132050 626.395752,171.983475 
	C631.585083,171.983475 636.857910,171.372238 641.934570,172.110229 
	C652.631348,173.665192 659.995911,181.427063 662.359619,192.569275 
	C664.270752,201.578278 660.120972,212.828461 651.732483,217.667984 
	C646.434082,220.724731 640.070190,223.598892 634.154907,223.658844 
	C587.046021,224.136230 539.930176,223.920853 492.816406,223.906845 
	C492.325134,223.906693 491.833893,223.757599 490.985779,223.418472 
z"/>
<path fill="#FEFEFF" opacity="1.000000" stroke="none" 
	d="
M279.191925,99.295609 
	C253.030518,93.730034 228.000351,86.115440 204.557251,73.891205 
	C203.526291,73.353622 202.527649,72.752022 201.484818,72.239510 
	C194.127609,68.623711 190.040237,70.336136 188.689606,78.566559 
	C187.567047,85.407181 187.634186,92.443031 187.004196,99.956314 
	C186.578293,100.719223 186.302994,100.885986 186.008179,101.020531 
	C172.350601,100.978340 158.691925,101.026123 145.035858,100.860321 
	C136.796509,100.760300 129.699127,95.653435 127.332695,88.531227 
	C124.921478,81.274231 126.954987,72.606880 133.389694,68.483971 
	C137.373062,65.931709 142.642761,65.435532 147.252472,63.785725 
	C148.843643,63.216251 150.947739,62.280975 151.525177,60.951473 
	C158.670029,44.501663 173.979340,38.548008 190.095383,46.175785 
	C191.138550,46.669514 192.175323,47.176727 193.694778,47.908779 
	C197.056793,34.372322 204.295380,23.918095 216.336945,16.967545 
	C224.176453,12.442468 232.570511,11.244997 241.373108,12.067331 
	C258.327087,13.651160 270.182159,26.327681 275.769012,49.087761 
	C277.603424,48.712364 279.476654,48.383617 281.322906,47.942150 
	C291.548431,45.497066 300.184967,48.522499 306.974884,56.184055 
	C314.094940,64.218132 315.903992,73.612221 311.427887,83.559860 
	C307.075653,93.232231 299.070557,98.060326 288.649170,98.963692 
	C285.669403,99.221992 282.657745,99.112473 279.191925,99.295609 
z"/>
<path fill="#FCFEFF" opacity="1.000000" stroke="none" 
	d="
M74.409035,285.411469 
	C121.466774,256.482391 167.390717,226.366501 215.586090,200.114746 
	C220.592545,206.829742 225.222839,213.040192 230.575729,220.219849 
	C174.043228,245.583099 117.763527,270.832947 61.483822,296.082794 
	C61.183590,295.490356 60.883362,294.897919 60.583130,294.305511 
	C65.092010,291.409790 69.600891,288.514069 74.409035,285.411469 
z"/>
<path fill="#FAFDFE" opacity="1.000000" stroke="none" 
	d="
M136.444260,185.455170 
	C153.368942,174.939285 169.994125,164.626297 186.616714,154.314911 
	C189.870377,158.750626 192.311401,162.078476 195.596313,166.556808 
	C153.669586,188.474243 112.096954,210.206558 70.524330,231.938889 
	C70.162102,231.320068 69.799866,230.701248 69.437637,230.082428 
	C80.409866,222.669968 91.343819,215.200027 102.364998,207.861084 
	C113.580193,200.392914 124.881287,193.053726 136.444260,185.455170 
z"/>
<path fill="#FAFDFE" opacity="1.000000" stroke="none" 
	d="
M56.676834,359.003601 
	C56.573029,358.314758 56.609821,357.352509 57.075359,357.050079 
	C91.915810,334.411652 125.733643,310.136932 162.701691,290.898071 
	C163.410492,290.529205 164.186005,290.288483 165.180679,289.886902 
	C167.272995,294.028809 169.259766,297.961792 171.455551,302.308472 
	C169.800507,303.263550 168.440872,304.146393 166.999557,304.865540 
	C132.194031,322.231842 97.383644,339.588379 62.555935,356.910126 
	C60.793064,357.786865 58.867413,358.336304 56.676834,359.003601 
z"/>
<path fill="#FAFDFE" opacity="1.000000" stroke="none" 
	d="
M142.836182,371.786560 
	C136.425873,374.480347 130.371857,377.035583 124.317841,379.590820 
	C124.094864,379.152832 123.871880,378.714844 123.648903,378.276855 
	C145.318634,363.334778 166.988373,348.392731 189.056717,333.175812 
	C192.256958,337.871918 195.011459,341.913940 198.349533,346.812286 
	C179.725113,355.198364 161.458786,363.423187 142.836182,371.786560 
z"/>
<path fill="#5AB1EC" opacity="1.000000" stroke="none" 
	d="
M186.165588,101.229095 
	C186.302994,100.885986 186.578293,100.719223 187.061920,100.443970 
	C187.468857,100.754524 187.647934,101.141335 187.788757,101.763809 
	C187.274658,101.812202 186.798828,101.624931 186.165588,101.229095 
z"/>
<path fill="#34A4FE" opacity="1.000000" stroke="none" 
	d="
M193.253906,277.731415 
	C218.711777,281.614197 243.603943,279.358551 268.010345,271.113464 
	C282.941528,266.069366 296.671112,258.769257 309.861420,250.228973 
	C313.955078,247.578445 318.761566,246.012589 323.280884,244.039902 
	C328.738861,241.657532 334.273132,239.447113 339.696381,236.990067 
	C341.106293,236.351288 342.225586,235.071106 343.148590,233.025940 
	C340.607178,233.151779 338.061829,233.224625 335.524933,233.411804 
	C314.307343,234.977173 294.064880,231.820969 275.385223,221.051651 
	C264.965057,215.044128 256.266754,207.218414 250.026947,196.369263 
	C250.251785,195.673370 250.369461,195.521149 250.487152,195.368942 
	C259.710175,197.443069 268.893799,199.725830 278.177246,201.480286 
	C281.509308,202.109985 285.119934,201.761215 288.534576,201.322845 
	C292.138733,200.860153 293.883026,197.939392 292.988953,194.798004 
	C292.516113,193.136475 289.739624,191.301300 287.791382,191.021988 
	C273.937958,189.036026 260.213623,186.715454 247.275635,181.027969 
	C234.830643,175.557175 224.778122,167.399323 218.655762,155.089706 
	C216.574875,150.905853 215.452271,146.245361 214.116684,142.443008 
	C227.488876,146.519516 240.425262,150.537262 253.424561,154.339905 
	C255.212204,154.862839 257.721985,154.987732 259.167816,154.103668 
	C261.136169,152.900116 263.077820,150.734741 263.664276,148.605408 
	C263.928009,147.647705 261.122559,145.035233 259.300110,144.450577 
	C250.770569,141.714325 241.975983,139.779602 233.510483,136.875320 
	C224.469070,133.773499 216.247757,129.159210 209.909286,121.594765 
	C201.087509,111.066681 196.965912,99.286224 199.293518,85.206619 
	C200.260925,85.433678 201.251160,85.462540 202.034851,85.879555 
	C226.662613,98.984390 253.659241,104.959846 280.270477,112.201630 
	C299.311462,117.383301 318.457397,122.484207 336.965637,129.239899 
	C358.947876,137.263687 376.134064,152.248749 389.925140,171.098068 
	C391.269745,172.935822 392.699524,174.711258 394.255493,176.730698 
	C396.426331,167.914032 392.531281,156.344940 384.627838,146.827286 
	C389.565125,136.118256 394.743378,125.746788 399.148834,115.056824 
	C402.623871,106.624588 404.922058,97.715446 408.137939,89.166718 
	C416.381805,67.252068 431.253326,52.672722 454.660919,47.556160 
	C480.208008,41.971939 507.747498,62.615223 508.730957,88.365395 
	C508.787476,89.845009 507.979828,91.572266 507.085205,92.838707 
	C501.332062,100.982742 501.281311,109.329201 506.460266,117.569237 
	C508.385529,120.632423 508.454590,123.032394 507.016235,126.232132 
	C498.221954,145.795670 494.571625,166.799576 489.835602,187.535110 
	C481.012665,226.164307 461.585358,258.114288 426.829407,278.413330 
	C394.275177,297.426453 359.113495,301.293732 322.844818,290.352661 
	C316.974457,288.581787 313.556732,289.482452 309.504303,293.744446 
	C298.491272,305.326874 287.463196,316.968140 275.570496,327.613495 
	C268.458801,333.979309 259.846680,338.742157 251.603073,343.718811 
	C249.534882,344.967346 245.776276,345.309113 243.671295,344.277893 
	C234.188187,339.632324 225.942749,333.241119 219.129456,324.211853 
	C236.647797,319.191193 251.961212,311.256744 264.206299,297.311890 
	C264.218323,296.794098 263.897980,296.683441 263.577637,296.572784 
	C249.163086,301.449158 234.712677,306.223572 220.358536,311.271729 
	C216.655289,312.574097 214.192719,311.738892 211.545959,309.056702 
	C203.044830,300.441711 195.850967,291.055481 192.642670,278.663025 
	C192.983810,277.985809 193.118866,277.858612 193.253906,277.731415 
M463.337738,82.681107 
	C463.528717,83.823288 463.625122,84.991112 463.926666,86.103310 
	C465.425934,91.632706 470.104828,94.756737 475.531494,93.911224 
	C480.704315,93.105255 484.181824,88.870224 484.175262,83.384575 
	C484.168732,77.925072 480.642334,73.785606 475.362427,73.039574 
	C469.752838,72.246956 465.536224,75.404243 463.337738,82.681107 
z"/>
<path fill="#34A2F8" opacity="1.000000" stroke="none" 
	d="
M515.839355,106.839066 
	C514.773804,106.599495 513.800598,106.442055 513.515991,105.913673 
	C513.163635,105.259621 513.327942,104.295570 513.362732,103.469398 
	C513.797302,93.147774 515.512390,91.262146 525.875244,91.276398 
	C533.526245,91.286926 540.994263,92.619049 548.768616,97.479355 
	C537.276978,100.756538 526.757080,103.756592 515.839355,106.839066 
z"/>
<path fill="#34A4FE" opacity="1.000000" stroke="none" 
	d="
M249.938156,196.037476 
	C249.609436,195.930008 249.476654,195.610657 249.343872,195.291306 
	C249.581299,195.229401 249.818741,195.167480 250.271667,195.237259 
	C250.369461,195.521149 250.251785,195.673370 249.938156,196.037476 
z"/>
<path fill="#34A4FE" opacity="1.000000" stroke="none" 
	d="
M192.629608,278.284546 
	C192.595520,278.113892 192.780548,277.771637 193.109741,277.580414 
	C193.118866,277.858612 192.983810,277.985809 192.629608,278.284546 
z"/>
<path fill="#022A5D" opacity="1.000000" stroke="none" 
	d="
M463.408417,82.309319 
	C465.536224,75.404243 469.752838,72.246956 475.362427,73.039574 
	C480.642334,73.785606 484.168732,77.925072 484.175262,83.384575 
	C484.181824,88.870224 480.704315,93.105255 475.531494,93.911224 
	C470.104828,94.756737 465.425934,91.632706 463.926666,86.103310 
	C463.625122,84.991112 463.528717,83.823288 463.408417,82.309319 
z"/>
<path fill="#022A5C" opacity="1.000000" stroke="none" 
	d="
M263.704559,296.701965 
	C263.897980,296.683441 264.218323,296.794098 264.315491,296.993591 
	C264.092346,297.082397 263.831482,296.831146 263.704559,296.701965 
z"/>
</svg>